<svg xmlns="http://www.w3.org/2000/svg" viewBox="0 0 1200 630">
  <rect width="1200" height="630" fill="#17130e"/>
  <ellipse cx="600" cy="700" rx="720" ry="260" fill="#e8590c" opacity="0.16"/>
  <ellipse cx="600" cy="740" rx="460" ry="180" fill="#f5921b" opacity="0.14"/>
  <g transform="translate(96 96)">
    <rect x="3.5" y="3.5" width="57" height="57" rx="16" stroke="#faf5ea" stroke-width="5" fill="none"/>
    <path d="M14 42h9.5L32 25.5 40.5 42H50" stroke="#faf5ea" stroke-width="5" stroke-linecap="round" stroke-linejoin="round" fill="none"/>
    <circle cx="32" cy="15.5" r="4.5" fill="#f5921b"/>
  </g>
  <g transform="translate(96 245.8) scale(0.2400)"><g transform="translate(0.0 0)"><path d="M3.2 97L30.3 25L39.5 25L13.6 97ZM58.9 97L33 25L42.7 25L69.9 97ZM16.9 68.3L55.5 68.3L55.5 77.1L16.9 77.1Z" fill="#f5921b"/></g><g transform="translate(99.1 0)"><path d="M7.4 97L7.4 25L37.9 25Q45.7 25 51.2 27.6Q56.7 30.2 59.65 35Q62.6 39.8 62.6 46.4Q62.6 53.1 59.65 57.95Q56.7 62.8 51.15 65.5Q45.6 68.2 37.9 68.2L15.5 68.2L15.5 59.4L37.4 59.4Q44.5 59.4 48.25 56Q52 52.6 52 46.5Q52 40.3 48.3 37Q44.6 33.7 37.4 33.7L18 33.7L18 97Z" fill="#f5921b"/></g><g transform="translate(191.2 0)"><path d="M7.4 97L7.4 25L18 25L18 97Z" fill="#f5921b"/></g><g transform="translate(242.6 0)"><path d="" fill="#f5921b"/></g><g transform="translate(288.3 0)"><path d="M7.4 97L7.4 25L23.8 25L47.8 94.4L42.4 94.4L66.2 25L82.8 25L82.8 97L72.3 97L72.3 29.3L73.9 29.3L50.7 97L38.9 97L15.7 29.9L17.3 29.9L17.3 97Z" fill="#f5921b"/></g><g transform="translate(404.5 0)"><path d="M39.5 98Q31.8 98 25.4 95.25Q19 92.5 14.3 87.5Q9.6 82.5 6.95 75.7Q4.3 68.9 4.3 60.7Q4.3 49.9 8.8 41.6Q13.3 33.3 21.25 28.65Q29.2 24 39.4 24Q49.8 24 57.7 28.65Q65.6 33.3 70.15 41.6Q74.7 49.9 74.7 60.8Q74.7 68.9 72.05 75.75Q69.4 82.6 64.7 87.55Q60 92.5 53.55 95.25Q47.1 98 39.5 98ZM39.4 89Q46.6 89 52.1 85.35Q57.6 81.7 60.75 75.3Q63.9 68.9 63.9 60.6Q63.9 52.4 60.8 46.15Q57.7 39.9 52.2 36.45Q46.7 33 39.4 33Q32.1 33 26.65 36.45Q21.2 39.9 18.15 46.1Q15.1 52.3 15.1 60.6Q15.1 69 18.2 75.4Q21.3 81.8 26.75 85.4Q32.2 89 39.4 89Z" fill="#f5921b"/></g><g transform="translate(509.5 0)"><path d="M7.4 97L7.4 25L19.7 25L57.9 86.6L55.5 87.1L55.5 25L65.7 25L65.7 97L53.4 97L15.2 35.4L17.6 34.9L17.6 97Z" fill="#f5921b"/></g><g transform="translate(608.5 0)"><path d="M7.4 97L7.4 25L18 25L18 97Z" fill="#f5921b"/></g><g transform="translate(659.9 0)"><path d="M27.5 97L27.5 33.7L3.2 33.7L3.2 25L62.4 25L62.4 33.7L38.1 33.7L38.1 97Z" fill="#f5921b"/></g><g transform="translate(751.5 0)"><path d="M39.5 98Q31.8 98 25.4 95.25Q19 92.5 14.3 87.5Q9.6 82.5 6.95 75.7Q4.3 68.9 4.3 60.7Q4.3 49.9 8.8 41.6Q13.3 33.3 21.25 28.65Q29.2 24 39.4 24Q49.8 24 57.7 28.65Q65.6 33.3 70.15 41.6Q74.7 49.9 74.7 60.8Q74.7 68.9 72.05 75.75Q69.4 82.6 64.7 87.55Q60 92.5 53.55 95.25Q47.1 98 39.5 98ZM39.4 89Q46.6 89 52.1 85.35Q57.6 81.7 60.75 75.3Q63.9 68.9 63.9 60.6Q63.9 52.4 60.8 46.15Q57.7 39.9 52.2 36.45Q46.7 33 39.4 33Q32.1 33 26.65 36.45Q21.2 39.9 18.15 46.1Q15.1 52.3 15.1 60.6Q15.1 69 18.2 75.4Q21.3 81.8 26.75 85.4Q32.2 89 39.4 89Z" fill="#f5921b"/></g><g transform="translate(856.5 0)"><path d="M7.3 97L7.3 25L35.7 25Q43.5 25 49 27.55Q54.5 30.1 57.5 34.65Q60.5 39.2 60.5 45.4Q60.5 51.6 57.5 56.2Q54.5 60.8 49 63.4Q43.5 66 35.7 66L15.3 66L15.3 57.4L35.4 57.4Q42.6 57.4 46.35 54.25Q50.1 51.1 50.1 45.5Q50.1 39.9 46.4 36.8Q42.7 33.7 35.4 33.7L17.9 33.7L17.9 97ZM48.9 97L13.8 60.7L26.7 60.7L64.1 97Z" fill="#f5921b"/></g><g transform="translate(948.5 0)"><path d="M7.4 97L7.4 25L18 25L18 97Z" fill="#f5921b"/></g><g transform="translate(999.9 0)"><path d="M7.4 97L7.4 25L19.7 25L57.9 86.6L55.5 87.1L55.5 25L65.7 25L65.7 97L53.4 97L15.2 35.4L17.6 34.9L17.6 97Z" fill="#f5921b"/></g><g transform="translate(1099.0 0)"><path d="M40.9 98Q29.6 98 21.4 93.45Q13.2 88.9 8.75 80.7Q4.3 72.5 4.3 61.4Q4.3 50.4 8.75 41.95Q13.2 33.5 21.1 28.75Q29 24 39.3 24Q47.5 24 54.15 27.05Q60.8 30.1 65.05 35.5Q69.3 40.9 70.1 48L59.5 48Q58.5 41.1 53.1 37.05Q47.7 33 39.6 33Q32.2 33 26.7 36.5Q21.2 40 18.15 46.3Q15.1 52.6 15.1 61.2Q15.1 69.9 18.2 76.15Q21.3 82.4 27.25 85.75Q33.2 89.1 41.6 89.1Q47.6 89.1 52.2 87.4Q56.8 85.7 60.2 82.4L70.5 86.3Q64.9 92.1 57.6 95.05Q50.3 98 40.9 98ZM59.9 86.3L59.9 64.2L63 67.3L41.5 67.3L41.5 58.5L70.5 58.5L70.5 86.3Z" fill="#f5921b"/></g></g>
  <g transform="translate(96 289.8) scale(0.7600)"><path d="M13.45 70.85L38.9 70.85L39.05 71.8L13.15 71.8ZM16.15 97.5Q16.15 97.6 16.05 97.7Q15.95 97.8 15.8 97.8L-0.2 97.8Q-0.35 97.8 -0.48 97.7Q-0.6 97.6 -0.6 97.45Q-0.6 97.3 -0.43 97.23Q-0.25 97.15 -0.15 97.1L1.75 96.55Q3.35 96 4.98 94.25Q6.6 92.5 7.7 88.85L23.85 33.85Q24.45 31.9 23.88 30.7Q23.3 29.5 21.8 28.85Q21.25 28.5 20.95 28.4Q20.65 28.3 20.65 28.1Q20.65 27.9 20.78 27.85Q20.9 27.8 21.15 27.8L40.6 27.8Q40.8 27.8 40.9 27.85Q41 27.9 41 28.1Q41 28.25 40.78 28.4Q40.55 28.55 39.9 28.8Q38.75 29 38.5 29.48Q38.25 29.95 38.7 31.25L58.8 94.45Q59.2 95.65 59.95 96.25Q60.7 96.85 61.9 97Q62.2 97.1 62.33 97.18Q62.45 97.25 62.45 97.5Q62.45 97.6 62.33 97.7Q62.2 97.8 62 97.8L39.95 97.8Q39.75 97.8 39.63 97.7Q39.5 97.6 39.5 97.5Q39.5 97.3 39.65 97.23Q39.8 97.15 40.1 97.1L42.45 96.75Q43.7 96.45 44 95.78Q44.3 95.1 43.9 93.85L24.65 33.05L25.85 30.45L8.6 89Q8 91.05 8.58 92.55Q9.15 94.05 10.58 95.08Q12 96.1 14.1 96.65L15.7 97.1Q15.95 97.15 16.05 97.25Q16.15 97.35 16.15 97.5ZM87.73 82.5L87.38 82L96.88 75.85Q102.88 71.9 106.85 67.35Q110.83 62.8 112.78 57.35Q114.73 51.9 114.73 45.3Q114.73 38.85 113.35 34.95Q111.98 31.05 109.73 29.28Q107.48 27.5 104.83 27.5Q100.08 27.5 97.65 30.33Q95.23 33.15 95.23 38.05L95.23 44.55Q95.23 48 93.35 50Q91.48 52 88.88 52Q85.93 52 84.28 50.35Q82.63 48.7 82.63 45.55Q82.63 40.8 85.45 36.5Q88.28 32.2 93.83 29.5Q99.38 26.8 107.58 26.8Q114.43 26.8 119.25 29.08Q124.08 31.35 126.6 35.35Q129.13 39.35 129.13 44.55Q129.13 49.8 126.55 54.48Q123.98 59.15 118.28 63.83Q112.58 68.5 103.23 74ZM81.28 92.4Q81.28 86.75 85.45 83.28Q89.63 79.8 97.48 79.8Q100.53 79.8 103.7 80.73Q106.88 81.65 110 82.83Q113.13 84 116.13 84.9Q119.13 85.8 121.78 85.8Q125.58 85.8 127.63 84.2Q129.68 82.6 131.03 78.5Q131.08 78.3 131.18 78.23Q131.28 78.15 131.38 78.15Q131.48 78.25 131.55 78.35Q131.63 78.45 131.53 78.6Q130.73 86.4 128.73 90.75Q126.73 95.1 123.68 96.88Q120.63 98.65 116.68 98.65Q113.38 98.65 110.75 97.45Q108.13 96.25 105.75 93.2Q103.38 90.15 100.58 84.65Q98.83 82.3 97.75 81.4Q96.68 80.5 95.83 80.5Q94.53 80.5 93.78 82.03Q93.03 83.55 92.88 87.6Q92.63 91.95 91.73 94.33Q90.83 96.7 89.35 97.63Q87.88 98.55 85.98 98.55Q83.83 98.55 82.55 96.83Q81.28 95.1 81.28 92.4ZM164.44 26.85Q173.14 26.85 179.39 31.08Q185.64 35.3 188.99 43.33Q192.34 51.35 192.34 62.8Q192.34 74.5 188.86 82.53Q185.39 90.55 179.11 94.68Q172.84 98.8 164.39 98.8Q155.59 98.8 149.49 94.48Q143.39 90.15 140.21 81.93Q137.04 73.7 137.04 62.05Q137.04 51.2 140.39 43.35Q143.74 35.5 149.91 31.18Q156.09 26.85 164.44 26.85ZM177.84 66.1Q177.84 52.55 176.36 44.08Q174.89 35.6 171.86 31.63Q168.84 27.65 164.14 27.65Q159.84 27.65 157.04 30.88Q154.24 34.1 152.86 41.08Q151.49 48.05 151.49 59.25Q151.49 72.85 152.96 81.43Q154.44 90 157.49 94Q160.54 98 165.24 98Q169.14 98 171.99 95.03Q174.84 92.05 176.34 85.08Q177.84 78.1 177.84 66.1ZM225.75 26.85Q234.45 26.85 240.7 31.08Q246.95 35.3 250.3 43.33Q253.65 51.35 253.65 62.8Q253.65 74.5 250.17 82.53Q246.7 90.55 240.42 94.68Q234.15 98.8 225.7 98.8Q216.9 98.8 210.8 94.48Q204.7 90.15 201.52 81.93Q198.35 73.7 198.35 62.05Q198.35 51.2 201.7 43.35Q205.05 35.5 211.22 31.18Q217.4 26.85 225.75 26.85ZM239.15 66.1Q239.15 52.55 237.67 44.08Q236.2 35.6 233.17 31.63Q230.15 27.65 225.45 27.65Q221.15 27.65 218.35 30.88Q215.55 34.1 214.17 41.08Q212.8 48.05 212.8 59.25Q212.8 72.85 214.27 81.43Q215.75 90 218.8 94Q221.85 98 226.55 98Q230.45 98 233.3 95.03Q236.15 92.05 237.65 85.08Q239.15 78.1 239.15 66.1ZM313.21 64.7Q313.21 67.3 311.71 68.9Q310.21 70.5 307.56 70.5Q304.91 70.5 303.33 68.85Q301.76 67.2 301.76 64.1L301.76 60.45Q301.76 57.35 300.08 55.55Q298.41 53.75 295.56 53.75Q292.56 53.75 290.36 55.88Q288.16 58 286.98 61.85Q285.81 65.7 285.81 71Q285.81 77.6 287.66 82.13Q289.51 86.65 292.78 88.98Q296.06 91.3 300.26 91.3Q304.81 91.3 308.06 89.28Q311.31 87.25 312.51 82.85Q312.51 82.65 312.61 82.6Q312.71 82.55 312.81 82.55Q312.91 82.6 312.98 82.7Q313.06 82.8 313.01 83Q312.06 88.05 309.46 91.55Q306.86 95.05 303.01 96.9Q299.16 98.75 294.21 98.75Q288.56 98.75 284.08 96.25Q279.61 93.75 277.01 88.85Q274.41 83.95 274.41 76.8Q274.41 69.95 277.21 64.55Q280.01 59.15 284.98 56.03Q289.96 52.9 296.51 52.9Q301.91 52.9 305.61 54.43Q309.31 55.95 311.26 58.63Q313.21 61.3 313.21 64.7ZM342.56 93.2L342.56 92.7L342.01 93.2L342.01 61Q342.01 57.4 340.51 55.48Q339.01 53.55 336.26 53.55Q333.11 53.55 331.56 55.15Q330.01 56.75 330.01 58.7L330.01 62.7Q330.01 65.25 328.23 66.95Q326.46 68.65 323.71 68.65Q321.76 68.65 320.48 67.48Q319.21 66.3 319.21 63.85Q319.21 61.25 321.31 58.73Q323.41 56.2 327.51 54.55Q331.61 52.9 337.66 52.9Q345.86 52.9 349.93 56.33Q354.01 59.75 354.01 66.05L354.01 92Q354.01 93.75 354.61 94.53Q355.21 95.3 356.11 95.3Q356.96 95.3 357.71 94.75Q358.46 94.2 358.61 92.95Q358.61 92.75 358.68 92.68Q358.76 92.6 358.86 92.6Q358.96 92.6 359.01 92.68Q359.06 92.75 359.06 92.9Q359.06 93.85 358.21 95.2Q357.36 96.55 355.41 97.63Q353.46 98.7 350.21 98.7Q346.21 98.7 344.38 97.15Q342.56 95.6 342.56 93.2ZM316.71 88.05Q316.71 82.65 321.21 79.33Q325.71 76 335.51 76Q338.61 76 340.56 76.63Q342.51 77.25 344.16 78.15L343.81 78.5Q342.11 77.65 340.33 77.23Q338.56 76.8 336.41 76.8Q332.66 76.8 330.63 79.3Q328.61 81.8 328.61 86.35Q328.61 90.7 330.56 93.03Q332.51 95.35 335.66 95.35Q337.71 95.35 339.73 94.35Q341.76 93.35 343.11 91.5L343.66 91.85Q341.46 95.2 337.63 96.98Q333.81 98.75 329.41 98.75Q323.81 98.75 320.26 95.75Q316.71 92.75 316.71 88.05ZM378.19 53.6L378.19 95.05Q378.19 95.7 378.49 96.1Q378.79 96.5 379.44 96.65L382.14 97.1Q382.69 97.2 382.69 97.45Q382.69 97.8 382.24 97.8L362.14 97.8Q361.99 97.8 361.86 97.7Q361.74 97.6 361.74 97.5Q361.74 97.35 361.84 97.28Q361.94 97.2 362.19 97.15L365.09 96.65Q365.74 96.45 366.01 96.08Q366.29 95.7 366.29 95.05L366.29 58.55Q366.29 58.25 366.14 58.08Q365.99 57.9 365.64 57.9L362.34 57.9Q362.14 57.9 362.04 57.83Q361.94 57.75 361.94 57.55Q361.94 57.35 362.06 57.3Q362.19 57.25 362.34 57.2L376.64 53.2Q377.14 53.1 377.31 53.05Q377.49 53 377.69 53Q377.94 53 378.06 53.18Q378.19 53.35 378.19 53.6ZM377.14 63.45L376.69 62.95L378.49 61.3Q383.69 56.65 387.81 54.8Q391.94 52.95 395.44 52.95Q400.39 52.95 403.54 55.98Q406.69 59 406.69 65.5L406.69 94.75Q406.69 95.55 407.06 96.05Q407.44 96.55 408.24 96.7L410.64 97.15Q410.94 97.15 411.04 97.25Q411.14 97.35 411.14 97.5Q411.14 97.6 411.01 97.7Q410.89 97.8 410.69 97.8L390.49 97.8Q390.04 97.8 390.04 97.45Q390.04 97.2 390.59 97.1L393.39 96.65Q394.19 96.45 394.49 95.98Q394.79 95.5 394.79 94.75L394.79 66.65Q394.79 62.25 392.81 60.23Q390.84 58.2 387.49 58.2Q385.39 58.2 383.24 59.08Q381.09 59.95 378.94 61.9ZM446.31 53.85Q442.91 53.85 440.86 55.65Q438.81 57.45 438.81 60.4Q438.81 62.4 439.76 64.05Q440.71 65.7 442.98 67.1Q445.26 68.5 449.21 69.75Q455.11 71.7 458.46 74Q461.81 76.3 463.21 79.2Q464.61 82.1 464.61 85.7Q464.61 92 460.38 95.4Q456.16 98.8 449.06 98.8Q446.01 98.8 444.03 98.23Q442.06 97.65 441.03 97.08Q440.01 96.5 439.71 96.5Q439.16 96.5 437.88 97.05Q436.61 97.6 435.38 98.2Q434.16 98.8 433.86 98.8Q433.71 98.8 433.53 98.7Q433.36 98.6 433.26 98.3L430.61 83.85Q430.56 83.4 430.58 83.18Q430.61 82.95 430.76 82.9Q430.91 82.75 431.06 82.83Q431.21 82.9 431.31 83.15Q434.21 88.7 436.88 91.93Q439.56 95.15 442.41 96.53Q445.26 97.9 448.56 97.9Q452.36 97.9 454.41 96Q456.46 94.1 456.46 90.95Q456.46 88.85 455.48 87.15Q454.51 85.45 452.03 84.03Q449.56 82.6 444.96 81.3Q439.66 79.8 436.48 77.58Q433.31 75.35 431.88 72.48Q430.46 69.6 430.46 66.1Q430.46 62.05 432.43 59.08Q434.41 56.1 437.78 54.48Q441.16 52.85 445.41 52.85Q448.16 52.85 450.13 53.63Q452.11 54.4 453.33 55.18Q454.56 55.95 454.86 55.95Q455.16 55.95 456.23 55.25Q457.31 54.55 458.43 53.83Q459.56 53.1 459.96 53.1Q460.21 53.1 460.46 53.3Q460.71 53.5 460.76 54.05L462.96 66.4Q463.06 66.95 463.01 67.18Q462.96 67.4 462.71 67.55Q462.61 67.6 462.51 67.5Q462.41 67.4 462.26 67.2Q458.26 59.95 454.26 56.9Q450.26 53.85 446.31 53.85ZM472.31 55.5L467.96 54.65Q467.71 54.55 467.58 54.48Q467.46 54.4 467.46 54.25Q467.46 54.15 467.58 54.03Q467.71 53.9 467.81 53.9L472.16 53.9Q472.51 53.9 472.71 53.8Q472.91 53.7 473.16 53.45L482.81 43.95Q483.11 43.75 483.38 43.58Q483.66 43.4 483.86 43.4Q484.16 43.4 484.31 43.6Q484.46 43.8 484.46 44.15L484.46 86.25Q484.46 90.3 486.01 92.28Q487.56 94.25 490.21 94.25Q491.16 94.25 492.03 93.98Q492.91 93.7 493.63 93.1Q494.36 92.5 494.93 91.45Q495.51 90.4 495.91 88.95Q496.01 88.65 496.23 88.7Q496.46 88.75 496.36 89.05Q495.56 92.3 494.13 94.45Q492.71 96.6 490.48 97.65Q488.26 98.7 485.11 98.7Q479.26 98.7 476.11 95.95Q472.96 93.2 472.96 87.5L472.96 56.5Q472.96 56.05 472.83 55.83Q472.71 55.6 472.31 55.5ZM480.81 54.95L481.16 53.9L496.01 53.9Q496.26 53.9 496.36 54Q496.46 54.1 496.46 54.25Q496.46 54.55 496.16 54.75Q495.86 54.95 495.26 54.95ZM515.43 53.6L515.43 95.05Q515.43 95.7 515.73 96.1Q516.03 96.5 516.68 96.65L519.38 97.1Q519.73 97.1 519.83 97.23Q519.93 97.35 519.93 97.5Q519.93 97.6 519.8 97.7Q519.68 97.8 519.48 97.8L499.38 97.8Q499.23 97.8 499.1 97.7Q498.98 97.6 498.98 97.5Q498.98 97.35 499.08 97.28Q499.18 97.2 499.43 97.15L502.33 96.65Q502.98 96.45 503.25 96.08Q503.53 95.7 503.53 95.05L503.53 58.55Q503.53 58.25 503.38 58.08Q503.23 57.9 502.88 57.9L499.58 57.9Q499.38 57.9 499.28 57.83Q499.18 57.75 499.18 57.55Q499.18 57.35 499.3 57.3Q499.43 57.25 499.58 57.2L513.88 53.2Q514.38 53.05 514.55 53.03Q514.73 53 514.93 53Q515.23 53 515.33 53.18Q515.43 53.35 515.43 53.6ZM509.28 46.7Q506.13 46.7 504.15 44.6Q502.18 42.5 502.18 39.5Q502.18 36.45 504.15 34.35Q506.13 32.25 509.28 32.25Q512.43 32.25 514.48 34.35Q516.53 36.45 516.53 39.5Q516.53 42.5 514.48 44.6Q512.43 46.7 509.28 46.7ZM539.67 24.15L539.67 95.05Q539.67 95.7 539.97 96.1Q540.27 96.5 540.92 96.65L543.62 97.1Q543.97 97.1 544.07 97.23Q544.17 97.35 544.17 97.5Q544.17 97.6 544.04 97.7Q543.92 97.8 543.72 97.8L523.62 97.8Q523.47 97.8 523.34 97.7Q523.22 97.6 523.22 97.5Q523.22 97.35 523.37 97.23Q523.52 97.1 523.87 97.05L526.57 96.65Q527.22 96.45 527.49 96.08Q527.77 95.7 527.77 95.05L527.77 29.1Q527.77 28.8 527.62 28.65Q527.47 28.5 527.12 28.5L523.82 28.5Q523.62 28.5 523.52 28.4Q523.42 28.3 523.42 28.15Q523.42 28 523.54 27.9Q523.67 27.8 523.82 27.75L538.12 23.75Q538.62 23.6 538.79 23.58Q538.97 23.55 539.17 23.55Q539.47 23.55 539.57 23.73Q539.67 23.9 539.67 24.15ZM566.21 24.15L566.21 95.05Q566.21 95.7 566.51 96.1Q566.81 96.5 567.46 96.65L570.16 97.1Q570.51 97.1 570.61 97.23Q570.71 97.35 570.71 97.5Q570.71 97.6 570.58 97.7Q570.46 97.8 570.26 97.8L550.16 97.8Q550.01 97.8 549.88 97.7Q549.76 97.6 549.76 97.5Q549.76 97.35 549.91 97.23Q550.06 97.1 550.41 97.05L553.11 96.65Q553.76 96.45 554.03 96.08Q554.31 95.7 554.31 95.05L554.31 29.1Q554.31 28.8 554.16 28.65Q554.01 28.5 553.66 28.5L550.36 28.5Q550.16 28.5 550.06 28.4Q549.96 28.3 549.96 28.15Q549.96 28 550.08 27.9Q550.21 27.8 550.36 27.75L564.66 23.75Q565.16 23.6 565.33 23.58Q565.51 23.55 565.71 23.55Q566.01 23.55 566.11 23.73Q566.21 23.9 566.21 24.15ZM604.65 24.15L604.65 94.25L594.1 98.2Q593.9 98.25 593.67 98.35Q593.45 98.45 593.25 98.45Q593.05 98.45 592.9 98.3Q592.75 98.15 592.75 97.95L592.75 29.1Q592.75 28.8 592.6 28.65Q592.45 28.5 592.1 28.5L588.8 28.5Q588.6 28.5 588.5 28.4Q588.4 28.3 588.4 28.15Q588.4 28 588.52 27.9Q588.65 27.8 588.8 27.75L603.1 23.75Q603.6 23.6 603.77 23.58Q603.95 23.55 604.15 23.55Q604.45 23.55 604.55 23.73Q604.65 23.9 604.65 24.15ZM603.85 61.5L603.3 60.9Q606.9 56.55 610.3 54.75Q613.7 52.95 617.9 52.95Q623.3 52.95 627.47 55.55Q631.65 58.15 634 63Q636.35 67.85 636.35 74.6Q636.35 81.9 633.7 87.35Q631.05 92.8 626.35 95.8Q621.65 98.8 615.55 98.8Q610.6 98.8 607.42 96.9Q604.25 95 602.35 91.6L603.3 91.15Q604.65 93.95 607 95.58Q609.35 97.2 612.6 97.2Q615.8 97.2 618.45 95.13Q621.1 93.05 622.65 88.3Q624.2 83.55 624.2 75.65Q624.2 68.6 622.87 64.1Q621.55 59.6 619.25 57.45Q616.95 55.3 613.95 55.3Q611.5 55.3 608.9 56.8Q606.3 58.3 603.85 61.5ZM680.6 71.95Q680.6 72.35 680.32 72.65Q680.05 72.95 679.5 72.95L648.45 72.95L648.45 72.05L667.85 72.05Q668.7 72.05 668.7 71.1Q668.7 62.2 666.32 57.95Q663.95 53.7 660.55 53.7Q657.75 53.7 655.7 55.63Q653.65 57.55 652.52 61.5Q651.4 65.45 651.4 71.55Q651.4 81.85 655.72 87Q660.05 92.15 667 92.15Q672.15 92.15 675.7 89.28Q679.25 86.4 679.75 81.5Q679.75 81.3 679.85 81.23Q679.95 81.15 679.95 81.15Q680.1 81.15 680.22 81.25Q680.35 81.35 680.3 81.65Q680 86.55 677.45 90.45Q674.9 94.35 670.67 96.58Q666.45 98.8 661.15 98.8Q654.95 98.8 650.27 96.08Q645.6 93.35 642.95 88.35Q640.3 83.35 640.3 76.75Q640.3 69.6 643 64.25Q645.7 58.9 650.57 55.9Q655.45 52.9 662 52.9Q667.65 52.9 671.82 55.38Q676 57.85 678.3 62.18Q680.6 66.5 680.6 71.95ZM721.4 97.8L716.55 97.8Q716.15 97.8 715.92 97.65Q715.7 97.5 715.55 97.1L702.15 56.65Q701.9 55.85 701.42 55.48Q700.95 55.1 700.15 54.95L698.1 54.55Q697.9 54.55 697.8 54.45Q697.7 54.35 697.7 54.25Q697.7 54.05 697.82 53.98Q697.95 53.9 698.1 53.9L719.7 53.9Q719.9 53.9 720 54Q720.1 54.1 720.1 54.3Q720.1 54.35 720 54.45Q719.9 54.55 719.6 54.6L716.95 55Q715.55 55.25 715.2 56.03Q714.85 56.8 715.25 58.1L724.75 87.6L722.3 94L733.25 58.75L734.1 59.15L722.25 97.2Q722.15 97.5 721.92 97.65Q721.7 97.8 721.4 97.8ZM749.65 97.8L744.8 97.8Q744.4 97.8 744.17 97.63Q743.95 97.45 743.8 97.05L730.7 56.95Q730.35 55.9 729.95 55.48Q729.55 55.05 728.9 54.95L727.35 54.6Q727.05 54.55 726.92 54.45Q726.8 54.35 726.8 54.25Q726.8 53.9 727.2 53.9L748.55 53.9Q749 53.9 749 54.25Q749 54.35 748.9 54.48Q748.8 54.6 748.45 54.65L745.45 55.3Q743.9 55.6 743.57 56.18Q743.25 56.75 743.6 57.85L753.15 87.8L750.4 94.45L760.95 60.55Q761.7 58.15 761.07 56.75Q760.45 55.35 758.6 55.05L756.1 54.6Q755.85 54.55 755.75 54.45Q755.65 54.35 755.65 54.25Q755.65 54.05 755.77 53.98Q755.9 53.9 756.05 53.9L767.35 53.9Q767.65 53.9 767.75 53.98Q767.85 54.05 767.85 54.25Q767.85 54.4 767.75 54.48Q767.65 54.55 767.3 54.65L766.1 55.05Q764.75 55.55 763.67 56.98Q762.6 58.4 761.9 60.65L750.6 97.15Q750.5 97.5 750.25 97.65Q750 97.8 749.65 97.8ZM784.49 72.85Q784.49 66.25 786.41 61.83Q788.34 57.4 791.31 55.18Q794.29 52.95 797.49 52.95Q801.19 52.95 803.19 55.28Q805.19 57.6 805.19 61.85Q805.19 65.6 803.44 67.43Q801.69 69.25 799.09 69.25Q796.64 69.25 795.46 67.9Q794.29 66.55 794.14 63.85L794.09 62.25Q794.09 60.75 793.46 59.95Q792.84 59.15 791.44 59.15Q789.79 59.15 788.36 60.68Q786.94 62.2 786.01 65.33Q785.09 68.45 785.09 73.15ZM785.09 53.95L785.09 70.55L785.09 94.75Q785.09 95.3 785.41 95.75Q785.74 96.2 786.39 96.35L791.29 97.1Q791.59 97.15 791.66 97.23Q791.74 97.3 791.74 97.5Q791.74 97.6 791.61 97.7Q791.49 97.8 791.29 97.8L769.14 97.8Q768.89 97.8 768.74 97.68Q768.59 97.55 768.59 97.5Q768.59 97.3 768.76 97.2Q768.94 97.1 769.24 97.05L771.94 96.65Q772.59 96.5 772.86 96.13Q773.14 95.75 773.14 95.25L773.14 58.35Q773.14 58.05 773.01 57.85Q772.89 57.65 772.54 57.65L769.09 57.65Q768.99 57.6 768.86 57.5Q768.74 57.4 768.74 57.3Q768.74 57.15 768.84 57.03Q768.94 56.9 769.24 56.9L783.54 53.5Q783.94 53.35 784.14 53.33Q784.34 53.3 784.59 53.3Q784.89 53.3 784.99 53.5Q785.09 53.7 785.09 53.95ZM830.95 52.9Q837.55 52.9 842.65 55.85Q847.75 58.8 850.65 64Q853.55 69.2 853.55 76.05Q853.55 82.75 850.57 87.9Q847.6 93.05 842.35 95.93Q837.1 98.8 830.35 98.8Q823.75 98.8 818.67 95.93Q813.6 93.05 810.72 87.93Q807.85 82.8 807.85 76.05Q807.85 69.3 810.8 64.1Q813.75 58.9 818.97 55.9Q824.2 52.9 830.95 52.9ZM833.4 97.95Q836.5 97.65 838.47 94.98Q840.45 92.3 841.12 87.23Q841.8 82.15 840.95 74.85Q840.1 67.5 838.3 62.7Q836.5 57.9 833.9 55.7Q831.3 53.5 828.05 53.8Q824.85 54.15 822.9 56.88Q820.95 59.6 820.35 64.65Q819.75 69.7 820.6 76.9Q821.45 84.15 823.27 88.95Q825.1 93.75 827.7 96Q830.3 98.25 833.4 97.95ZM873.67 53.6L873.67 95.05Q873.67 95.7 873.97 96.1Q874.27 96.5 874.92 96.65L877.62 97.1Q878.17 97.2 878.17 97.45Q878.17 97.8 877.72 97.8L857.62 97.8Q857.47 97.8 857.34 97.7Q857.22 97.6 857.22 97.5Q857.22 97.35 857.32 97.28Q857.42 97.2 857.67 97.15L860.57 96.65Q861.22 96.45 861.49 96.08Q861.77 95.7 861.77 95.05L861.77 58.55Q861.77 58.25 861.62 58.08Q861.47 57.9 861.12 57.9L857.82 57.9Q857.62 57.9 857.52 57.83Q857.42 57.75 857.42 57.55Q857.42 57.35 857.54 57.3Q857.67 57.25 857.82 57.2L872.12 53.2Q872.62 53.1 872.79 53.05Q872.97 53 873.17 53Q873.42 53 873.54 53.18Q873.67 53.35 873.67 53.6ZM872.62 63.45L872.17 62.95L873.97 61.3Q879.17 56.65 883.29 54.8Q887.42 52.95 890.92 52.95Q895.87 52.95 899.02 55.98Q902.17 59 902.17 65.5L902.17 94.75Q902.17 95.55 902.54 96.05Q902.92 96.55 903.72 96.7L906.12 97.15Q906.42 97.15 906.52 97.25Q906.62 97.35 906.62 97.5Q906.62 97.6 906.49 97.7Q906.37 97.8 906.17 97.8L885.97 97.8Q885.52 97.8 885.52 97.45Q885.52 97.2 886.07 97.1L888.87 96.65Q889.67 96.45 889.97 95.98Q890.27 95.5 890.27 94.75L890.27 66.65Q890.27 62.25 888.29 60.23Q886.32 58.2 882.97 58.2Q880.87 58.2 878.72 59.08Q876.57 59.95 874.42 61.9ZM938.39 95.9Q932.69 94.5 929.86 93.48Q927.04 92.45 926.09 91.58Q925.14 90.7 925.14 89.55Q925.14 88.4 925.94 87.58Q926.74 86.75 927.84 86.4L927.84 86Q923.39 86.75 920.74 87.98Q918.09 89.2 916.94 90.93Q915.79 92.65 915.79 94.85Q915.79 97.3 917.29 98.93Q918.79 100.55 922.34 101.83Q925.89 103.1 932.09 104.5Q937.44 105.7 940.36 106.93Q943.29 108.15 944.41 109.73Q945.54 111.3 945.54 113.3Q945.54 115.95 944.11 117.78Q942.69 119.6 939.84 120.5Q936.99 121.4 932.74 121.4Q924.74 121.4 920.76 117.78Q916.79 114.15 916.79 108.2Q916.79 105.8 918.56 104.05Q920.34 102.3 923.79 101.6L923.74 101.1Q915.54 102.15 912.06 104.73Q908.59 107.3 908.59 111.45Q908.59 114.6 911.01 117.08Q913.44 119.55 918.66 120.98Q923.89 122.4 932.24 122.4Q943.14 122.4 949.09 118.4Q955.04 114.4 955.04 108.1Q955.04 104.85 953.61 102.58Q952.19 100.3 948.56 98.7Q944.94 97.1 938.39 95.9ZM939.04 55.45L939.84 55.35Q940.79 53.35 941.91 52.18Q943.04 51 944.49 51Q945.59 51 946.44 51.88Q947.29 52.75 948.11 53.93Q948.94 55.1 949.96 55.98Q950.99 56.85 952.49 56.85Q954.69 56.85 955.89 55.53Q957.09 54.2 957.09 51.85Q957.09 49 955.29 47.18Q953.49 45.35 950.19 45.35Q946.49 45.35 943.94 47.9Q941.39 50.45 939.44 54.55ZM951.79 69.55Q951.79 65.05 949.39 61.28Q946.99 57.5 942.49 55.18Q937.99 52.85 931.84 52.85Q925.24 52.85 920.46 55.2Q915.69 57.55 913.11 61.58Q910.54 65.6 910.54 70.6Q910.54 75.05 913.11 78.78Q915.69 82.5 920.36 84.7Q925.04 86.9 931.34 86.9Q937.14 86.9 941.76 84.63Q946.39 82.35 949.09 78.43Q951.79 74.5 951.79 69.55ZM929.24 53.95Q933.19 53.75 936.04 58.1Q938.89 62.45 939.59 70.1Q940.19 77.2 938.24 81.38Q936.29 85.55 932.79 85.7Q930.24 85.85 928.04 83.88Q925.84 81.9 924.39 78.25Q922.94 74.6 922.49 69.6Q922.04 64.95 922.81 61.45Q923.59 57.95 925.26 56Q926.94 54.05 929.24 53.95ZM966.52 98.7Q964.57 98.7 962.94 97.68Q961.32 96.65 960.39 94.93Q959.47 93.2 959.47 91.2Q959.47 89.2 960.39 87.5Q961.32 85.8 962.94 84.8Q964.57 83.8 966.52 83.8Q968.57 83.8 970.19 84.8Q971.82 85.8 972.77 87.5Q973.72 89.2 973.72 91.15Q973.72 93.2 972.77 94.93Q971.82 96.65 970.22 97.68Q968.62 98.7 966.52 98.7ZM1054.38 77.2Q1053.93 81.85 1051.78 85.9Q1049.63 89.95 1046.13 92.95Q1042.63 95.95 1037.93 97.63Q1033.23 99.3 1027.73 99.3Q1017.73 99.3 1010.45 94.85Q1003.18 90.4 999.25 82.43Q995.33 74.45 995.33 63.8Q995.33 55.55 997.73 48.7Q1000.13 41.85 1004.55 36.9Q1008.98 31.95 1015.1 29.23Q1021.23 26.5 1028.68 26.5Q1033.43 26.5 1036.68 27.55Q1039.93 28.6 1041.7 29.7Q1043.48 30.8 1043.88 30.8Q1044.48 30.8 1045.58 29.73Q1046.68 28.65 1047.75 27.58Q1048.83 26.5 1049.08 26.5Q1049.33 26.5 1049.48 26.68Q1049.63 26.85 1049.68 27.3L1054.63 47Q1054.73 47.35 1054.68 47.6Q1054.63 47.85 1054.28 47.95Q1053.98 48 1053.75 47.83Q1053.53 47.65 1053.33 47.2Q1050.63 40.15 1047.23 35.93Q1043.83 31.7 1039.9 29.8Q1035.98 27.9 1031.63 27.9Q1027.08 27.9 1023.23 29.95Q1019.38 32 1016.5 35.95Q1013.63 39.9 1012.03 45.65Q1010.43 51.4 1010.43 58.85Q1010.43 70.4 1013.53 78.15Q1016.63 85.9 1022.08 89.78Q1027.53 93.65 1034.68 93.65Q1042.13 93.65 1047.15 89.28Q1052.18 84.9 1053.78 77.1Q1053.88 76.85 1053.95 76.73Q1054.03 76.6 1054.18 76.6Q1054.33 76.6 1054.38 76.78Q1054.43 76.95 1054.38 77.2ZM1073.63 63.45L1073.18 62.95L1074.98 61.3Q1080.13 56.65 1084.28 54.8Q1088.43 52.95 1091.93 52.95Q1096.88 52.95 1100.03 55.98Q1103.18 59 1103.18 65.5L1103.18 94.75Q1103.18 95.55 1103.56 96.05Q1103.93 96.55 1104.73 96.7L1107.13 97.15Q1107.43 97.15 1107.53 97.25Q1107.63 97.35 1107.63 97.5Q1107.63 97.6 1107.51 97.7Q1107.38 97.8 1107.18 97.8L1086.98 97.8Q1086.53 97.8 1086.53 97.45Q1086.53 97.2 1087.08 97.1L1089.88 96.65Q1090.68 96.45 1090.98 95.98Q1091.28 95.5 1091.28 94.75L1091.28 66.65Q1091.28 62.25 1089.31 60.23Q1087.33 58.2 1083.98 58.2Q1081.88 58.2 1079.71 59.08Q1077.53 59.95 1075.43 61.9ZM1074.68 24.15L1074.68 95.05Q1074.68 95.7 1074.98 96.1Q1075.28 96.5 1075.93 96.65L1078.63 97.1Q1079.18 97.2 1079.18 97.45Q1079.18 97.8 1078.73 97.8L1058.63 97.8Q1058.48 97.8 1058.36 97.7Q1058.23 97.6 1058.23 97.5Q1058.23 97.35 1058.38 97.23Q1058.53 97.1 1058.88 97.05L1061.58 96.65Q1062.23 96.45 1062.51 96.08Q1062.78 95.7 1062.78 95.05L1062.78 29.1Q1062.78 28.8 1062.63 28.65Q1062.48 28.5 1062.13 28.5L1058.83 28.5Q1058.63 28.5 1058.53 28.4Q1058.43 28.3 1058.43 28.15Q1058.43 28 1058.56 27.9Q1058.68 27.8 1058.83 27.75L1073.13 23.75Q1073.63 23.65 1073.81 23.6Q1073.98 23.55 1074.18 23.55Q1074.43 23.55 1074.56 23.73Q1074.68 23.9 1074.68 24.15ZM1150.5 71.95Q1150.5 72.35 1150.23 72.65Q1149.95 72.95 1149.4 72.95L1118.35 72.95L1118.35 72.05L1137.75 72.05Q1138.6 72.05 1138.6 71.1Q1138.6 62.2 1136.23 57.95Q1133.85 53.7 1130.45 53.7Q1127.65 53.7 1125.6 55.63Q1123.55 57.55 1122.43 61.5Q1121.3 65.45 1121.3 71.55Q1121.3 81.85 1125.63 87Q1129.95 92.15 1136.9 92.15Q1142.05 92.15 1145.6 89.28Q1149.15 86.4 1149.65 81.5Q1149.65 81.3 1149.75 81.23Q1149.85 81.15 1149.85 81.15Q1150 81.15 1150.13 81.25Q1150.25 81.35 1150.2 81.65Q1149.9 86.55 1147.35 90.45Q1144.8 94.35 1140.58 96.58Q1136.35 98.8 1131.05 98.8Q1124.85 98.8 1120.18 96.08Q1115.5 93.35 1112.85 88.35Q1110.2 83.35 1110.2 76.75Q1110.2 69.6 1112.9 64.25Q1115.6 58.9 1120.48 55.9Q1125.35 52.9 1131.9 52.9Q1137.55 52.9 1141.73 55.38Q1145.9 57.85 1148.2 62.18Q1150.5 66.5 1150.5 71.95ZM1192.75 64.7Q1192.75 67.3 1191.25 68.9Q1189.75 70.5 1187.1 70.5Q1184.45 70.5 1182.88 68.85Q1181.3 67.2 1181.3 64.1L1181.3 60.45Q1181.3 57.35 1179.63 55.55Q1177.95 53.75 1175.1 53.75Q1172.1 53.75 1169.9 55.88Q1167.7 58 1166.53 61.85Q1165.35 65.7 1165.35 71Q1165.35 77.6 1167.2 82.13Q1169.05 86.65 1172.33 88.98Q1175.6 91.3 1179.8 91.3Q1184.35 91.3 1187.6 89.28Q1190.85 87.25 1192.05 82.85Q1192.05 82.65 1192.15 82.6Q1192.25 82.55 1192.35 82.55Q1192.45 82.6 1192.53 82.7Q1192.6 82.8 1192.55 83Q1191.6 88.05 1189 91.55Q1186.4 95.05 1182.55 96.9Q1178.7 98.75 1173.75 98.75Q1168.1 98.75 1163.63 96.25Q1159.15 93.75 1156.55 88.85Q1153.95 83.95 1153.95 76.8Q1153.95 69.95 1156.75 64.55Q1159.55 59.15 1164.53 56.03Q1169.5 52.9 1176.05 52.9Q1181.45 52.9 1185.15 54.43Q1188.85 55.95 1190.8 58.63Q1192.75 61.3 1192.75 64.7ZM1196.2 97.8Q1196.05 97.8 1195.93 97.7Q1195.8 97.6 1195.8 97.5Q1195.8 97.35 1195.95 97.23Q1196.1 97.1 1196.45 97.05L1199.15 96.65Q1199.8 96.45 1200.08 96.08Q1200.35 95.7 1200.35 95.05L1200.35 29.1Q1200.35 28.8 1200.2 28.65Q1200.05 28.5 1199.7 28.5L1196.4 28.5Q1196.2 28.5 1196.1 28.4Q1196 28.3 1196 28.15Q1196 28 1196.13 27.9Q1196.25 27.8 1196.4 27.75L1210.7 23.75Q1211.2 23.65 1211.38 23.6Q1211.55 23.55 1211.75 23.55Q1212 23.55 1212.13 23.73Q1212.25 23.9 1212.25 24.15L1212.25 95.05Q1212.25 95.7 1212.55 96.1Q1212.85 96.5 1213.5 96.65L1216.2 97.1Q1216.75 97.2 1216.75 97.45Q1216.75 97.8 1216.3 97.8ZM1210.4 81.1L1229.65 61.65Q1231.95 59.4 1231.35 57.5Q1230.75 55.6 1227.95 55L1226 54.65Q1225.7 54.55 1225.58 54.45Q1225.45 54.35 1225.45 54.3Q1225.45 54.1 1225.58 54Q1225.7 53.9 1225.9 53.9L1243.75 53.9Q1244 53.9 1244.13 53.98Q1244.25 54.05 1244.25 54.25Q1244.25 54.4 1244.1 54.5Q1243.95 54.6 1243.6 54.65Q1239.95 55.45 1236.68 57.23Q1233.4 59 1230.5 61.95L1211 81.75ZM1225.4 66.5L1241.55 94.4Q1242.3 95.7 1243.1 96.23Q1243.9 96.75 1245.15 97.1Q1245.5 97.25 1245.6 97.33Q1245.7 97.4 1245.7 97.55Q1245.7 97.65 1245.6 97.73Q1245.5 97.8 1245.25 97.8L1223.6 97.8Q1223.45 97.8 1223.33 97.73Q1223.2 97.65 1223.2 97.45Q1223.2 97.35 1223.33 97.25Q1223.45 97.15 1223.75 97.1L1225.95 96.75Q1227.15 96.55 1227.45 95.93Q1227.75 95.3 1227.2 94.25L1216.9 75.3Z" fill="#faf5ea"/></g>
  <g transform="translate(96 374.9) scale(0.7600)"><path d="M5.3 55.5L0.95 54.65Q0.7 54.55 0.58 54.48Q0.45 54.4 0.45 54.25Q0.45 54.15 0.58 54.03Q0.7 53.9 0.8 53.9L5.15 53.9Q5.5 53.9 5.7 53.8Q5.9 53.7 6.15 53.45L15.8 43.95Q16.1 43.75 16.38 43.58Q16.65 43.4 16.85 43.4Q17.15 43.4 17.3 43.6Q17.45 43.8 17.45 44.15L17.45 86.25Q17.45 90.3 19 92.28Q20.55 94.25 23.2 94.25Q24.15 94.25 25.03 93.98Q25.9 93.7 26.63 93.1Q27.35 92.5 27.93 91.45Q28.5 90.4 28.9 88.95Q29 88.65 29.23 88.7Q29.45 88.75 29.35 89.05Q28.55 92.3 27.13 94.45Q25.7 96.6 23.48 97.65Q21.25 98.7 18.1 98.7Q12.25 98.7 9.1 95.95Q5.95 93.2 5.95 87.5L5.95 56.5Q5.95 56.05 5.83 55.83Q5.7 55.6 5.3 55.5ZM13.8 54.95L14.15 53.9L29 53.9Q29.25 53.9 29.35 54Q29.45 54.1 29.45 54.25Q29.45 54.55 29.15 54.75Q28.85 54.95 28.25 54.95ZM47.17 63.45L46.72 62.95L48.52 61.3Q53.67 56.65 57.82 54.8Q61.97 52.95 65.47 52.95Q70.42 52.95 73.57 55.98Q76.72 59 76.72 65.5L76.72 94.75Q76.72 95.55 77.09 96.05Q77.47 96.55 78.27 96.7L80.67 97.15Q80.97 97.15 81.07 97.25Q81.17 97.35 81.17 97.5Q81.17 97.6 81.04 97.7Q80.92 97.8 80.72 97.8L60.52 97.8Q60.07 97.8 60.07 97.45Q60.07 97.2 60.62 97.1L63.42 96.65Q64.22 96.45 64.52 95.98Q64.82 95.5 64.82 94.75L64.82 66.65Q64.82 62.25 62.84 60.23Q60.87 58.2 57.52 58.2Q55.42 58.2 53.24 59.08Q51.07 59.95 48.97 61.9ZM48.22 24.15L48.22 95.05Q48.22 95.7 48.52 96.1Q48.82 96.5 49.47 96.65L52.17 97.1Q52.72 97.2 52.72 97.45Q52.72 97.8 52.27 97.8L32.17 97.8Q32.02 97.8 31.89 97.7Q31.77 97.6 31.77 97.5Q31.77 97.35 31.92 97.23Q32.07 97.1 32.42 97.05L35.12 96.65Q35.77 96.45 36.04 96.08Q36.32 95.7 36.32 95.05L36.32 29.1Q36.32 28.8 36.17 28.65Q36.02 28.5 35.67 28.5L32.37 28.5Q32.17 28.5 32.07 28.4Q31.97 28.3 31.97 28.15Q31.97 28 32.09 27.9Q32.22 27.8 32.37 27.75L46.67 23.75Q47.17 23.65 47.34 23.6Q47.52 23.55 47.72 23.55Q47.97 23.55 48.09 23.73Q48.22 23.9 48.22 24.15ZM124.04 71.95Q124.04 72.35 123.76 72.65Q123.49 72.95 122.94 72.95L91.89 72.95L91.89 72.05L111.29 72.05Q112.14 72.05 112.14 71.1Q112.14 62.2 109.76 57.95Q107.39 53.7 103.99 53.7Q101.19 53.7 99.14 55.63Q97.09 57.55 95.96 61.5Q94.84 65.45 94.84 71.55Q94.84 81.85 99.16 87Q103.49 92.15 110.44 92.15Q115.59 92.15 119.14 89.28Q122.69 86.4 123.19 81.5Q123.19 81.3 123.29 81.23Q123.39 81.15 123.39 81.15Q123.54 81.15 123.66 81.25Q123.79 81.35 123.74 81.65Q123.44 86.55 120.89 90.45Q118.34 94.35 114.11 96.58Q109.89 98.8 104.59 98.8Q98.39 98.8 93.71 96.08Q89.04 93.35 86.39 88.35Q83.74 83.35 83.74 76.75Q83.74 69.6 86.44 64.25Q89.14 58.9 94.01 55.9Q98.89 52.9 105.44 52.9Q111.09 52.9 115.26 55.38Q119.44 57.85 121.74 62.18Q124.04 66.5 124.04 71.95ZM169.69 93.2L169.69 92.7L169.14 93.2L169.14 61Q169.14 57.4 167.64 55.48Q166.14 53.55 163.39 53.55Q160.24 53.55 158.69 55.15Q157.14 56.75 157.14 58.7L157.14 62.7Q157.14 65.25 155.36 66.95Q153.59 68.65 150.84 68.65Q148.89 68.65 147.61 67.48Q146.34 66.3 146.34 63.85Q146.34 61.25 148.44 58.73Q150.54 56.2 154.64 54.55Q158.74 52.9 164.79 52.9Q172.99 52.9 177.06 56.33Q181.14 59.75 181.14 66.05L181.14 92Q181.14 93.75 181.74 94.53Q182.34 95.3 183.24 95.3Q184.09 95.3 184.84 94.75Q185.59 94.2 185.74 92.95Q185.74 92.75 185.81 92.68Q185.89 92.6 185.99 92.6Q186.09 92.6 186.14 92.68Q186.19 92.75 186.19 92.9Q186.19 93.85 185.34 95.2Q184.49 96.55 182.54 97.63Q180.59 98.7 177.34 98.7Q173.34 98.7 171.51 97.15Q169.69 95.6 169.69 93.2ZM143.84 88.05Q143.84 82.65 148.34 79.33Q152.84 76 162.64 76Q165.74 76 167.69 76.63Q169.64 77.25 171.29 78.15L170.94 78.5Q169.24 77.65 167.46 77.23Q165.69 76.8 163.54 76.8Q159.79 76.8 157.76 79.3Q155.74 81.8 155.74 86.35Q155.74 90.7 157.69 93.03Q159.64 95.35 162.79 95.35Q164.84 95.35 166.86 94.35Q168.89 93.35 170.24 91.5L170.79 91.85Q168.59 95.2 164.76 96.98Q160.94 98.75 156.54 98.75Q150.94 98.75 147.39 95.75Q143.84 92.75 143.84 88.05ZM205.32 53.6L205.32 95.05Q205.32 95.7 205.62 96.1Q205.92 96.5 206.57 96.65L209.27 97.1Q209.82 97.2 209.82 97.45Q209.82 97.8 209.37 97.8L189.27 97.8Q189.12 97.8 188.99 97.7Q188.87 97.6 188.87 97.5Q188.87 97.35 188.97 97.28Q189.07 97.2 189.32 97.15L192.22 96.65Q192.87 96.45 193.14 96.08Q193.42 95.7 193.42 95.05L193.42 58.55Q193.42 58.25 193.27 58.08Q193.12 57.9 192.77 57.9L189.47 57.9Q189.27 57.9 189.17 57.83Q189.07 57.75 189.07 57.55Q189.07 57.35 189.19 57.3Q189.32 57.25 189.47 57.2L203.77 53.2Q204.27 53.1 204.44 53.05Q204.62 53 204.82 53Q205.07 53 205.19 53.18Q205.32 53.35 205.32 53.6ZM204.27 63.45L203.82 62.95L205.62 61.3Q210.82 56.65 214.94 54.8Q219.07 52.95 222.57 52.95Q227.52 52.95 230.67 55.98Q233.82 59 233.82 65.5L233.82 94.75Q233.82 95.55 234.19 96.05Q234.57 96.55 235.37 96.7L237.77 97.15Q238.07 97.15 238.17 97.25Q238.27 97.35 238.27 97.5Q238.27 97.6 238.14 97.7Q238.02 97.8 237.82 97.8L217.62 97.8Q217.17 97.8 217.17 97.45Q217.17 97.2 217.72 97.1L220.52 96.65Q221.32 96.45 221.62 95.98Q221.92 95.5 221.92 94.75L221.92 66.65Q221.92 62.25 219.94 60.23Q217.97 58.2 214.62 58.2Q212.52 58.2 210.37 59.08Q208.22 59.95 206.07 61.9ZM257.44 53.85Q254.04 53.85 251.99 55.65Q249.94 57.45 249.94 60.4Q249.94 62.4 250.89 64.05Q251.84 65.7 254.11 67.1Q256.39 68.5 260.34 69.75Q266.24 71.7 269.59 74Q272.94 76.3 274.34 79.2Q275.74 82.1 275.74 85.7Q275.74 92 271.51 95.4Q267.29 98.8 260.19 98.8Q257.14 98.8 255.16 98.23Q253.19 97.65 252.16 97.08Q251.14 96.5 250.84 96.5Q250.29 96.5 249.01 97.05Q247.74 97.6 246.51 98.2Q245.29 98.8 244.99 98.8Q244.84 98.8 244.66 98.7Q244.49 98.6 244.39 98.3L241.74 83.85Q241.69 83.4 241.71 83.18Q241.74 82.95 241.89 82.9Q242.04 82.75 242.19 82.83Q242.34 82.9 242.44 83.15Q245.34 88.7 248.01 91.93Q250.69 95.15 253.54 96.53Q256.39 97.9 259.69 97.9Q263.49 97.9 265.54 96Q267.59 94.1 267.59 90.95Q267.59 88.85 266.61 87.15Q265.64 85.45 263.16 84.03Q260.69 82.6 256.09 81.3Q250.79 79.8 247.61 77.58Q244.44 75.35 243.01 72.48Q241.59 69.6 241.59 66.1Q241.59 62.05 243.56 59.08Q245.54 56.1 248.91 54.48Q252.29 52.85 256.54 52.85Q259.29 52.85 261.26 53.63Q263.24 54.4 264.46 55.18Q265.69 55.95 265.99 55.95Q266.29 55.95 267.36 55.25Q268.44 54.55 269.56 53.83Q270.69 53.1 271.09 53.1Q271.34 53.1 271.59 53.3Q271.84 53.5 271.89 54.05L274.09 66.4Q274.19 66.95 274.14 67.18Q274.09 67.4 273.84 67.55Q273.74 67.6 273.64 67.5Q273.54 67.4 273.39 67.2Q269.39 59.95 265.39 56.9Q261.39 53.85 257.44 53.85ZM301.24 97.8L296.39 97.8Q295.99 97.8 295.76 97.65Q295.54 97.5 295.39 97.1L281.99 56.65Q281.74 55.85 281.26 55.48Q280.79 55.1 279.99 54.95L277.94 54.55Q277.74 54.55 277.64 54.45Q277.54 54.35 277.54 54.25Q277.54 54.05 277.66 53.98Q277.79 53.9 277.94 53.9L299.54 53.9Q299.74 53.9 299.84 54Q299.94 54.1 299.94 54.3Q299.94 54.35 299.84 54.45Q299.74 54.55 299.44 54.6L296.79 55Q295.39 55.25 295.04 56.03Q294.69 56.8 295.09 58.1L304.59 87.6L302.14 94L313.09 58.75L313.94 59.15L302.09 97.2Q301.99 97.5 301.76 97.65Q301.54 97.8 301.24 97.8ZM329.49 97.8L324.64 97.8Q324.24 97.8 324.01 97.63Q323.79 97.45 323.64 97.05L310.54 56.95Q310.19 55.9 309.79 55.48Q309.39 55.05 308.74 54.95L307.19 54.6Q306.89 54.55 306.76 54.45Q306.64 54.35 306.64 54.25Q306.64 53.9 307.04 53.9L328.39 53.9Q328.84 53.9 328.84 54.25Q328.84 54.35 328.74 54.48Q328.64 54.6 328.29 54.65L325.29 55.3Q323.74 55.6 323.41 56.18Q323.09 56.75 323.44 57.85L332.99 87.8L330.24 94.45L340.79 60.55Q341.54 58.15 340.91 56.75Q340.29 55.35 338.44 55.05L335.94 54.6Q335.69 54.55 335.59 54.45Q335.49 54.35 335.49 54.25Q335.49 54.05 335.61 53.98Q335.74 53.9 335.89 53.9L347.19 53.9Q347.49 53.9 347.59 53.98Q347.69 54.05 347.69 54.25Q347.69 54.4 347.59 54.48Q347.49 54.55 347.14 54.65L345.94 55.05Q344.59 55.55 343.51 56.98Q342.44 58.4 341.74 60.65L330.44 97.15Q330.34 97.5 330.09 97.65Q329.84 97.8 329.49 97.8ZM387.23 71.95Q387.23 72.35 386.95 72.65Q386.68 72.95 386.13 72.95L355.08 72.95L355.08 72.05L374.48 72.05Q375.33 72.05 375.33 71.1Q375.33 62.2 372.95 57.95Q370.58 53.7 367.18 53.7Q364.38 53.7 362.33 55.63Q360.28 57.55 359.15 61.5Q358.03 65.45 358.03 71.55Q358.03 81.85 362.35 87Q366.68 92.15 373.63 92.15Q378.78 92.15 382.33 89.28Q385.88 86.4 386.38 81.5Q386.38 81.3 386.48 81.23Q386.58 81.15 386.58 81.15Q386.73 81.15 386.85 81.25Q386.98 81.35 386.93 81.65Q386.63 86.55 384.08 90.45Q381.53 94.35 377.3 96.58Q373.08 98.8 367.78 98.8Q361.58 98.8 356.9 96.08Q352.23 93.35 349.58 88.35Q346.93 83.35 346.93 76.75Q346.93 69.6 349.63 64.25Q352.33 58.9 357.2 55.9Q362.08 52.9 368.63 52.9Q374.28 52.9 378.45 55.38Q382.63 57.85 384.93 62.18Q387.23 66.5 387.23 71.95ZM406.53 72.85Q406.53 66.25 408.45 61.83Q410.38 57.4 413.35 55.18Q416.33 52.95 419.53 52.95Q423.23 52.95 425.23 55.28Q427.23 57.6 427.23 61.85Q427.23 65.6 425.48 67.43Q423.73 69.25 421.13 69.25Q418.68 69.25 417.5 67.9Q416.33 66.55 416.18 63.85L416.13 62.25Q416.13 60.75 415.5 59.95Q414.88 59.15 413.48 59.15Q411.83 59.15 410.4 60.68Q408.98 62.2 408.05 65.33Q407.13 68.45 407.13 73.15ZM407.13 53.95L407.13 70.55L407.13 94.75Q407.13 95.3 407.45 95.75Q407.78 96.2 408.43 96.35L413.33 97.1Q413.63 97.15 413.7 97.23Q413.78 97.3 413.78 97.5Q413.78 97.6 413.65 97.7Q413.53 97.8 413.33 97.8L391.18 97.8Q390.93 97.8 390.78 97.68Q390.63 97.55 390.63 97.5Q390.63 97.3 390.8 97.2Q390.98 97.1 391.28 97.05L393.98 96.65Q394.63 96.5 394.9 96.13Q395.18 95.75 395.18 95.25L395.18 58.35Q395.18 58.05 395.05 57.85Q394.93 57.65 394.58 57.65L391.13 57.65Q391.03 57.6 390.9 57.5Q390.78 57.4 390.78 57.3Q390.78 57.15 390.88 57.03Q390.98 56.9 391.28 56.9L405.58 53.5Q405.98 53.35 406.18 53.33Q406.38 53.3 406.63 53.3Q406.93 53.3 407.03 53.5Q407.13 53.7 407.13 53.95ZM439.24 97.8Q435.29 97.8 433.31 95.93Q431.34 94.05 431.34 90.8Q431.34 87.7 433.36 85.7Q435.39 83.7 438.54 83.7Q441.49 83.7 443.69 86.13Q445.89 88.55 445.89 93.35Q445.89 97.8 445.09 101.33Q444.29 104.85 442.69 107.5Q441.09 110.15 438.74 111.95Q436.39 113.75 433.34 114.85Q433.04 114.9 432.86 114.8Q432.69 114.7 432.59 114.55Q432.59 114.3 432.71 114.15Q432.84 114 433.19 113.9Q436.94 112.45 439.16 110.13Q441.39 107.8 442.34 105.05Q443.29 102.3 443.29 99.7Q443.29 98.8 442.99 98.3Q442.69 97.8 441.74 97.8ZM482.49 53.6L482.49 95.05Q482.49 95.7 482.79 96.1Q483.09 96.5 483.74 96.65L486.44 97.1Q486.99 97.2 486.99 97.45Q486.99 97.8 486.54 97.8L466.44 97.8Q466.29 97.8 466.16 97.7Q466.04 97.6 466.04 97.5Q466.04 97.35 466.14 97.28Q466.24 97.2 466.49 97.15L469.39 96.65Q470.04 96.45 470.31 96.08Q470.59 95.7 470.59 95.05L470.59 58.55Q470.59 58.25 470.44 58.08Q470.29 57.9 469.94 57.9L466.64 57.9Q466.44 57.9 466.34 57.83Q466.24 57.75 466.24 57.55Q466.24 57.35 466.36 57.3Q466.49 57.25 466.64 57.2L480.94 53.2Q481.44 53.1 481.61 53.05Q481.79 53 481.99 53Q482.24 53 482.36 53.18Q482.49 53.35 482.49 53.6ZM481.44 63.45L480.99 62.95L482.79 61.3Q487.99 56.65 492.11 54.8Q496.24 52.95 499.74 52.95Q504.69 52.95 507.84 55.98Q510.99 59 510.99 65.5L510.99 94.75Q510.99 95.55 511.36 96.05Q511.74 96.55 512.54 96.7L514.94 97.15Q515.24 97.15 515.34 97.25Q515.44 97.35 515.44 97.5Q515.44 97.6 515.31 97.7Q515.19 97.8 514.99 97.8L494.79 97.8Q494.34 97.8 494.34 97.45Q494.34 97.2 494.89 97.1L497.69 96.65Q498.49 96.45 498.79 95.98Q499.09 95.5 499.09 94.75L499.09 66.65Q499.09 62.25 497.11 60.23Q495.14 58.2 491.79 58.2Q489.69 58.2 487.54 59.08Q485.39 59.95 483.24 61.9ZM541.41 52.9Q548.01 52.9 553.11 55.85Q558.21 58.8 561.11 64Q564.01 69.2 564.01 76.05Q564.01 82.75 561.03 87.9Q558.06 93.05 552.81 95.93Q547.56 98.8 540.81 98.8Q534.21 98.8 529.13 95.93Q524.06 93.05 521.18 87.93Q518.31 82.8 518.31 76.05Q518.31 69.3 521.26 64.1Q524.21 58.9 529.43 55.9Q534.66 52.9 541.41 52.9ZM543.86 97.95Q546.96 97.65 548.93 94.98Q550.91 92.3 551.58 87.23Q552.26 82.15 551.41 74.85Q550.56 67.5 548.76 62.7Q546.96 57.9 544.36 55.7Q541.76 53.5 538.51 53.8Q535.31 54.15 533.36 56.88Q531.41 59.6 530.81 64.65Q530.21 69.7 531.06 76.9Q531.91 84.15 533.73 88.95Q535.56 93.75 538.16 96Q540.76 98.25 543.86 97.95ZM571.33 55.5L566.98 54.65Q566.73 54.55 566.6 54.48Q566.48 54.4 566.48 54.25Q566.48 54.15 566.6 54.03Q566.73 53.9 566.83 53.9L571.18 53.9Q571.53 53.9 571.73 53.8Q571.93 53.7 572.18 53.45L581.83 43.95Q582.13 43.75 582.4 43.58Q582.68 43.4 582.88 43.4Q583.18 43.4 583.33 43.6Q583.48 43.8 583.48 44.15L583.48 86.25Q583.48 90.3 585.03 92.28Q586.58 94.25 589.23 94.25Q590.18 94.25 591.05 93.98Q591.93 93.7 592.65 93.1Q593.38 92.5 593.95 91.45Q594.53 90.4 594.93 88.95Q595.03 88.65 595.25 88.7Q595.48 88.75 595.38 89.05Q594.58 92.3 593.15 94.45Q591.73 96.6 589.5 97.65Q587.28 98.7 584.13 98.7Q578.28 98.7 575.13 95.95Q571.98 93.2 571.98 87.5L571.98 56.5Q571.98 56.05 571.85 55.83Q571.73 55.6 571.33 55.5ZM579.83 54.95L580.18 53.9L595.03 53.9Q595.28 53.9 595.38 54Q595.48 54.1 595.48 54.25Q595.48 54.55 595.18 54.75Q594.88 54.95 594.28 54.95ZM630.45 90.25Q630.45 93.6 631.07 96.18Q631.7 98.75 632.5 100.93Q633.3 103.1 633.92 105.3Q634.55 107.5 634.55 110.05Q634.55 114.85 631.57 117.73Q628.6 120.6 623.3 120.6Q619.3 120.6 616.5 119.35Q613.7 118.1 612.25 116.03Q610.8 113.95 610.8 111.4Q610.8 108.45 612.25 107Q613.7 105.55 616.1 105.55Q618.45 105.55 619.97 107.15Q621.5 108.75 621.5 111.45L621.5 116Q621.5 117.95 622.22 118.83Q622.95 119.7 624.35 119.7Q626.55 119.7 627.67 118.25Q628.8 116.8 628.8 114.05Q628.8 111.45 627.77 109.15Q626.75 106.85 625.22 104.73Q623.7 102.6 622.15 100.53Q620.6 98.45 619.57 96.25Q618.55 94.05 618.55 91.65L618.55 58.6Q618.55 58.25 618.37 58.08Q618.2 57.9 617.9 57.9L614.65 57.9Q614.4 57.9 614.3 57.83Q614.2 57.75 614.2 57.55Q614.2 57.4 614.32 57.33Q614.45 57.25 614.6 57.2L628.85 53.2Q629.3 53.1 629.5 53.05Q629.7 53 629.95 53Q630.2 53 630.32 53.2Q630.45 53.4 630.45 53.65ZM624.3 46.7Q621.15 46.7 619.17 44.6Q617.2 42.5 617.2 39.5Q617.2 36.45 619.2 34.35Q621.2 32.25 624.3 32.25Q627.45 32.25 629.47 34.35Q631.5 36.45 631.5 39.5Q631.5 42.5 629.47 44.6Q627.45 46.7 624.3 46.7ZM670.29 96.35L670.29 89.8L670.29 89.5L670.29 58.65Q670.29 58.35 670.16 58.2Q670.04 58.05 669.64 58.05L666.39 58.05Q666.14 58 666.04 57.93Q665.94 57.85 665.94 57.7Q665.94 57.5 666.06 57.43Q666.19 57.35 666.39 57.3L680.74 53.3Q681.14 53.2 681.34 53.15Q681.54 53.1 681.74 53.1Q681.99 53.1 682.14 53.28Q682.29 53.45 682.29 53.7L682.29 95.05Q682.29 95.7 682.54 96.1Q682.79 96.5 683.49 96.65L686.19 97.1Q686.54 97.1 686.64 97.23Q686.74 97.35 686.74 97.5Q686.74 97.6 686.64 97.7Q686.54 97.8 686.34 97.8L671.64 97.8Q670.99 97.8 670.64 97.45Q670.29 97.1 670.29 96.35ZM641.99 86.1L641.99 58.65Q641.99 58.35 641.81 58.2Q641.64 58.05 641.29 58.05L637.99 58.05Q637.79 58 637.69 57.93Q637.59 57.85 637.59 57.7Q637.59 57.5 637.71 57.43Q637.84 57.35 638.04 57.3L652.34 53.3Q652.84 53.15 653.01 53.13Q653.19 53.1 653.39 53.1Q653.69 53.1 653.79 53.28Q653.89 53.45 653.89 53.7L653.89 84.85Q653.89 89.3 655.89 91.35Q657.89 93.4 661.19 93.4Q663.34 93.4 665.49 92.5Q667.64 91.6 669.79 89.65L671.54 88.1L672.04 88.6L670.24 90.25Q665.04 94.85 660.91 96.75Q656.79 98.65 653.29 98.65Q648.34 98.65 645.16 95.63Q641.99 92.6 641.99 86.1ZM706.26 53.85Q702.86 53.85 700.81 55.65Q698.76 57.45 698.76 60.4Q698.76 62.4 699.71 64.05Q700.66 65.7 702.93 67.1Q705.21 68.5 709.16 69.75Q715.06 71.7 718.41 74Q721.76 76.3 723.16 79.2Q724.56 82.1 724.56 85.7Q724.56 92 720.33 95.4Q716.11 98.8 709.01 98.8Q705.96 98.8 703.98 98.23Q702.01 97.65 700.98 97.08Q699.96 96.5 699.66 96.5Q699.11 96.5 697.83 97.05Q696.56 97.6 695.33 98.2Q694.11 98.8 693.81 98.8Q693.66 98.8 693.48 98.7Q693.31 98.6 693.21 98.3L690.56 83.85Q690.51 83.4 690.53 83.18Q690.56 82.95 690.71 82.9Q690.86 82.75 691.01 82.83Q691.16 82.9 691.26 83.15Q694.16 88.7 696.83 91.93Q699.51 95.15 702.36 96.53Q705.21 97.9 708.51 97.9Q712.31 97.9 714.36 96Q716.41 94.1 716.41 90.95Q716.41 88.85 715.43 87.15Q714.46 85.45 711.98 84.03Q709.51 82.6 704.91 81.3Q699.61 79.8 696.43 77.58Q693.26 75.35 691.83 72.48Q690.41 69.6 690.41 66.1Q690.41 62.05 692.38 59.08Q694.36 56.1 697.73 54.48Q701.11 52.85 705.36 52.85Q708.11 52.85 710.08 53.63Q712.06 54.4 713.28 55.18Q714.51 55.95 714.81 55.95Q715.11 55.95 716.18 55.25Q717.26 54.55 718.38 53.83Q719.51 53.1 719.91 53.1Q720.16 53.1 720.41 53.3Q720.66 53.5 720.71 54.05L722.91 66.4Q723.01 66.95 722.96 67.18Q722.91 67.4 722.66 67.55Q722.56 67.6 722.46 67.5Q722.36 67.4 722.21 67.2Q718.21 59.95 714.21 56.9Q710.21 53.85 706.26 53.85ZM732.26 55.5L727.91 54.65Q727.66 54.55 727.53 54.48Q727.41 54.4 727.41 54.25Q727.41 54.15 727.53 54.03Q727.66 53.9 727.76 53.9L732.11 53.9Q732.46 53.9 732.66 53.8Q732.86 53.7 733.11 53.45L742.76 43.95Q743.06 43.75 743.33 43.58Q743.61 43.4 743.81 43.4Q744.11 43.4 744.26 43.6Q744.41 43.8 744.41 44.15L744.41 86.25Q744.41 90.3 745.96 92.28Q747.51 94.25 750.16 94.25Q751.11 94.25 751.98 93.98Q752.86 93.7 753.58 93.1Q754.31 92.5 754.88 91.45Q755.46 90.4 755.86 88.95Q755.96 88.65 756.18 88.7Q756.41 88.75 756.31 89.05Q755.51 92.3 754.08 94.45Q752.66 96.6 750.43 97.65Q748.21 98.7 745.06 98.7Q739.21 98.7 736.06 95.95Q732.91 93.2 732.91 87.5L732.91 56.5Q732.91 56.05 732.78 55.83Q732.66 55.6 732.26 55.5ZM740.76 54.95L741.11 53.9L755.96 53.9Q756.21 53.9 756.31 54Q756.41 54.1 756.41 54.25Q756.41 54.55 756.11 54.75Q755.81 54.95 755.21 54.95ZM778.38 55.5L774.03 54.65Q773.78 54.55 773.65 54.48Q773.53 54.4 773.53 54.25Q773.53 54.15 773.65 54.03Q773.78 53.9 773.88 53.9L778.23 53.9Q778.58 53.9 778.78 53.8Q778.98 53.7 779.23 53.45L788.88 43.95Q789.18 43.75 789.45 43.58Q789.73 43.4 789.93 43.4Q790.23 43.4 790.38 43.6Q790.53 43.8 790.53 44.15L790.53 86.25Q790.53 90.3 792.08 92.28Q793.63 94.25 796.28 94.25Q797.23 94.25 798.1 93.98Q798.98 93.7 799.7 93.1Q800.43 92.5 801 91.45Q801.58 90.4 801.98 88.95Q802.08 88.65 802.3 88.7Q802.53 88.75 802.43 89.05Q801.63 92.3 800.2 94.45Q798.78 96.6 796.55 97.65Q794.33 98.7 791.18 98.7Q785.33 98.7 782.18 95.95Q779.03 93.2 779.03 87.5L779.03 56.5Q779.03 56.05 778.9 55.83Q778.78 55.6 778.38 55.5ZM786.88 54.95L787.23 53.9L802.08 53.9Q802.33 53.9 802.43 54Q802.53 54.1 802.53 54.25Q802.53 54.55 802.23 54.75Q801.93 54.95 801.33 54.95ZM820.25 63.45L819.8 62.95L821.6 61.3Q826.75 56.65 830.9 54.8Q835.05 52.95 838.55 52.95Q843.5 52.95 846.65 55.98Q849.8 59 849.8 65.5L849.8 94.75Q849.8 95.55 850.17 96.05Q850.55 96.55 851.35 96.7L853.75 97.15Q854.05 97.15 854.15 97.25Q854.25 97.35 854.25 97.5Q854.25 97.6 854.12 97.7Q854 97.8 853.8 97.8L833.6 97.8Q833.15 97.8 833.15 97.45Q833.15 97.2 833.7 97.1L836.5 96.65Q837.3 96.45 837.6 95.98Q837.9 95.5 837.9 94.75L837.9 66.65Q837.9 62.25 835.92 60.23Q833.95 58.2 830.6 58.2Q828.5 58.2 826.32 59.08Q824.15 59.95 822.05 61.9ZM821.3 24.15L821.3 95.05Q821.3 95.7 821.6 96.1Q821.9 96.5 822.55 96.65L825.25 97.1Q825.8 97.2 825.8 97.45Q825.8 97.8 825.35 97.8L805.25 97.8Q805.1 97.8 804.97 97.7Q804.85 97.6 804.85 97.5Q804.85 97.35 805 97.23Q805.15 97.1 805.5 97.05L808.2 96.65Q808.85 96.45 809.12 96.08Q809.4 95.7 809.4 95.05L809.4 29.1Q809.4 28.8 809.25 28.65Q809.1 28.5 808.75 28.5L805.45 28.5Q805.25 28.5 805.15 28.4Q805.05 28.3 805.05 28.15Q805.05 28 805.17 27.9Q805.3 27.8 805.45 27.75L819.75 23.75Q820.25 23.65 820.42 23.6Q820.6 23.55 820.8 23.55Q821.05 23.55 821.17 23.73Q821.3 23.9 821.3 24.15ZM897.12 71.95Q897.12 72.35 896.84 72.65Q896.57 72.95 896.02 72.95L864.97 72.95L864.97 72.05L884.37 72.05Q885.22 72.05 885.22 71.1Q885.22 62.2 882.84 57.95Q880.47 53.7 877.07 53.7Q874.27 53.7 872.22 55.63Q870.17 57.55 869.04 61.5Q867.92 65.45 867.92 71.55Q867.92 81.85 872.24 87Q876.57 92.15 883.52 92.15Q888.67 92.15 892.22 89.28Q895.77 86.4 896.27 81.5Q896.27 81.3 896.37 81.23Q896.47 81.15 896.47 81.15Q896.62 81.15 896.74 81.25Q896.87 81.35 896.82 81.65Q896.52 86.55 893.97 90.45Q891.42 94.35 887.19 96.58Q882.97 98.8 877.67 98.8Q871.47 98.8 866.79 96.08Q862.12 93.35 859.47 88.35Q856.82 83.35 856.82 76.75Q856.82 69.6 859.52 64.25Q862.22 58.9 867.09 55.9Q871.97 52.9 878.52 52.9Q884.17 52.9 888.34 55.38Q892.52 57.85 894.82 62.18Q897.12 66.5 897.12 71.95ZM948.77 92.05L948.77 91.8L948.77 29.1Q948.77 28.8 948.62 28.65Q948.47 28.5 948.12 28.5L944.87 28.5Q944.62 28.5 944.52 28.4Q944.42 28.3 944.42 28.15Q944.42 28 944.54 27.9Q944.67 27.8 944.82 27.75L959.17 23.75Q959.62 23.65 959.79 23.6Q959.97 23.55 960.17 23.55Q960.47 23.55 960.59 23.73Q960.72 23.9 960.72 24.15L960.72 95.05Q960.72 95.7 960.99 96.1Q961.27 96.5 961.87 96.65L964.67 97.1Q964.92 97.1 965.04 97.23Q965.17 97.35 965.17 97.5Q965.17 97.6 965.07 97.7Q964.97 97.8 964.72 97.8L950.07 97.8Q949.42 97.8 949.09 97.45Q948.77 97.1 948.77 96.35ZM917.07 77.15Q917.07 69.65 919.84 64.23Q922.62 58.8 927.37 55.88Q932.12 52.95 937.87 52.95Q942.77 52.95 945.94 54.83Q949.12 56.7 951.12 60.15L950.17 60.55Q948.77 57.75 946.37 56.13Q943.97 54.5 940.67 54.5Q937.47 54.5 934.87 56.6Q932.27 58.7 930.74 63.43Q929.22 68.15 929.22 76.05Q929.22 83 930.49 87.45Q931.77 91.9 934.12 94.05Q936.47 96.2 939.52 96.2Q941.97 96.2 944.57 94.78Q947.17 93.35 949.52 90.2L950.12 90.8Q946.52 95.15 943.12 96.98Q939.72 98.8 935.52 98.8Q930.12 98.8 925.94 96.2Q921.77 93.6 919.42 88.7Q917.07 83.8 917.07 77.15ZM990.7 52.9Q997.3 52.9 1002.4 55.85Q1007.5 58.8 1010.4 64Q1013.3 69.2 1013.3 76.05Q1013.3 82.75 1010.33 87.9Q1007.35 93.05 1002.1 95.93Q996.85 98.8 990.1 98.8Q983.5 98.8 978.43 95.93Q973.35 93.05 970.48 87.93Q967.6 82.8 967.6 76.05Q967.6 69.3 970.55 64.1Q973.5 58.9 978.73 55.9Q983.95 52.9 990.7 52.9ZM993.15 97.95Q996.25 97.65 998.23 94.98Q1000.2 92.3 1000.88 87.23Q1001.55 82.15 1000.7 74.85Q999.85 67.5 998.05 62.7Q996.25 57.9 993.65 55.7Q991.05 53.5 987.8 53.8Q984.6 54.15 982.65 56.88Q980.7 59.6 980.1 64.65Q979.5 69.7 980.35 76.9Q981.2 84.15 983.03 88.95Q984.85 93.75 987.45 96Q990.05 98.25 993.15 97.95ZM1040.42 52.9Q1047.02 52.9 1052.12 55.85Q1057.22 58.8 1060.12 64Q1063.02 69.2 1063.02 76.05Q1063.02 82.75 1060.05 87.9Q1057.07 93.05 1051.82 95.93Q1046.57 98.8 1039.82 98.8Q1033.22 98.8 1028.15 95.93Q1023.07 93.05 1020.2 87.93Q1017.32 82.8 1017.32 76.05Q1017.32 69.3 1020.27 64.1Q1023.22 58.9 1028.45 55.9Q1033.67 52.9 1040.42 52.9ZM1042.87 97.95Q1045.97 97.65 1047.95 94.98Q1049.92 92.3 1050.6 87.23Q1051.27 82.15 1050.42 74.85Q1049.57 67.5 1047.77 62.7Q1045.97 57.9 1043.37 55.7Q1040.77 53.5 1037.52 53.8Q1034.32 54.15 1032.37 56.88Q1030.42 59.6 1029.82 64.65Q1029.22 69.7 1030.07 76.9Q1030.92 84.15 1032.75 88.95Q1034.57 93.75 1037.17 96Q1039.77 98.25 1042.87 97.95ZM1082.64 72.85Q1082.64 66.25 1084.57 61.83Q1086.49 57.4 1089.47 55.18Q1092.44 52.95 1095.64 52.95Q1099.34 52.95 1101.34 55.28Q1103.34 57.6 1103.34 61.85Q1103.34 65.6 1101.59 67.43Q1099.84 69.25 1097.24 69.25Q1094.79 69.25 1093.62 67.9Q1092.44 66.55 1092.29 63.85L1092.24 62.25Q1092.24 60.75 1091.62 59.95Q1090.99 59.15 1089.59 59.15Q1087.94 59.15 1086.52 60.68Q1085.09 62.2 1084.17 65.33Q1083.24 68.45 1083.24 73.15ZM1083.24 53.95L1083.24 70.55L1083.24 94.75Q1083.24 95.3 1083.57 95.75Q1083.89 96.2 1084.54 96.35L1089.44 97.1Q1089.74 97.15 1089.82 97.23Q1089.89 97.3 1089.89 97.5Q1089.89 97.6 1089.77 97.7Q1089.64 97.8 1089.44 97.8L1067.29 97.8Q1067.04 97.8 1066.89 97.68Q1066.74 97.55 1066.74 97.5Q1066.74 97.3 1066.92 97.2Q1067.09 97.1 1067.39 97.05L1070.09 96.65Q1070.74 96.5 1071.02 96.13Q1071.29 95.75 1071.29 95.25L1071.29 58.35Q1071.29 58.05 1071.17 57.85Q1071.04 57.65 1070.69 57.65L1067.24 57.65Q1067.14 57.6 1067.02 57.5Q1066.89 57.4 1066.89 57.3Q1066.89 57.15 1066.99 57.03Q1067.09 56.9 1067.39 56.9L1081.69 53.5Q1082.09 53.35 1082.29 53.33Q1082.49 53.3 1082.74 53.3Q1083.04 53.3 1083.14 53.5Q1083.24 53.7 1083.24 53.95ZM1113.95 98.7Q1112 98.7 1110.38 97.68Q1108.75 96.65 1107.83 94.93Q1106.9 93.2 1106.9 91.2Q1106.9 89.2 1107.83 87.5Q1108.75 85.8 1110.38 84.8Q1112 83.8 1113.95 83.8Q1116 83.8 1117.63 84.8Q1119.25 85.8 1120.2 87.5Q1121.15 89.2 1121.15 91.15Q1121.15 93.2 1120.2 94.93Q1119.25 96.65 1117.65 97.68Q1116.05 98.7 1113.95 98.7Z" fill="#faf5ea"/></g>
  <g transform="translate(96 504) scale(0.28)"><path d="M11.4 97L11.4 40.1Q11.4 32.3 15.8 28.15Q20.2 24 29 24Q31 24 32.3 24.2Q33.6 24.4 34.6 24.8L34.6 32.8Q33.9 32.6 32.75 32.4Q31.6 32.2 30.2 32.2Q25.8 32.2 23.8 34.35Q21.8 36.5 21.8 40.4L21.8 97ZM1.6 54.3L1.6 46L33.5 46L33.5 54.3ZM73.03 97Q72.53 95.1 72.38 92.8Q72.23 90.5 72.23 87.2L71.73 87.2L71.73 62.9Q71.73 58 69.28 55.55Q66.83 53.1 61.53 53.1Q56.43 53.1 53.38 55.1Q50.33 57.1 49.83 60.8L39.93 60.8Q40.63 53.6 46.43 49.3Q52.23 45 61.93 45Q71.93 45 76.93 49.65Q81.93 54.3 81.93 63.3L81.93 87.2Q81.93 89.5 82.23 91.9Q82.53 94.3 83.13 97ZM55.43 98Q47.63 98 43.03 94.15Q38.43 90.3 38.43 83.7Q38.43 76.9 43.28 72.95Q48.13 69 57.23 67.6L74.03 64.9L74.03 72.2L58.83 74.6Q53.73 75.4 51.18 77.3Q48.63 79.2 48.63 82.8Q48.63 86.3 50.98 88.05Q53.33 89.8 57.83 89.8Q63.83 89.8 67.78 86.9Q71.73 84 71.73 79.6L73.03 87Q71.23 92.3 66.63 95.15Q62.03 98 55.43 98ZM90.07 118.5Q88.27 118.5 86.97 118.3Q85.67 118.1 84.67 117.7L84.67 109.7Q85.37 109.9 86.52 110.1Q87.67 110.3 88.87 110.3Q92.37 110.3 93.82 108.75Q95.27 107.2 95.27 104.1L95.27 46L105.67 46L105.67 104.4Q105.67 111.1 101.92 114.8Q98.17 118.5 90.07 118.5ZM94.77 36L94.77 24.3L106.27 24.3L106.27 36ZM119.73 97L119.73 46L130.13 46L130.13 97ZM119.23 36L119.23 24.3L130.73 24.3L130.73 36ZM166.03 98Q157.13 98 152.98 93.85Q148.83 89.7 148.83 81.6L148.83 34.3L159.13 30.4L159.13 81.7Q159.13 85.7 161.23 87.6Q163.33 89.5 168.03 89.5Q169.83 89.5 171.23 89.2Q172.63 88.9 173.63 88.5L173.63 96.9Q172.53 97.4 170.53 97.7Q168.53 98 166.03 98ZM138.63 54.3L138.63 46L173.63 46L173.63 54.3ZM214.77 97Q214.27 95.1 214.12 92.8Q213.97 90.5 213.97 87.2L213.47 87.2L213.47 62.9Q213.47 58 211.02 55.55Q208.57 53.1 203.27 53.1Q198.17 53.1 195.12 55.1Q192.07 57.1 191.57 60.8L181.67 60.8Q182.37 53.6 188.17 49.3Q193.97 45 203.67 45Q213.67 45 218.67 49.65Q223.67 54.3 223.67 63.3L223.67 87.2Q223.67 89.5 223.97 91.9Q224.27 94.3 224.87 97ZM197.17 98Q189.37 98 184.77 94.15Q180.17 90.3 180.17 83.7Q180.17 76.9 185.02 72.95Q189.87 69 198.97 67.6L215.77 64.9L215.77 72.2L200.57 74.6Q195.47 75.4 192.92 77.3Q190.37 79.2 190.37 82.8Q190.37 86.3 192.72 88.05Q195.07 89.8 199.57 89.8Q205.57 89.8 209.52 86.9Q213.47 84 213.47 79.6L214.77 87Q212.97 92.3 208.37 95.15Q203.77 98 197.17 98ZM233.87 97L233.87 84.6L246.17 84.6L246.17 97ZM260.57 97L260.57 46L270.97 46L270.97 97ZM260.07 36L260.07 24.3L271.57 24.3L271.57 36ZM307.57 98Q299.77 98 293.87 94.55Q287.97 91.1 284.67 85.05Q281.37 79 281.37 71.3Q281.37 63.5 284.72 57.6Q288.07 51.7 293.92 48.35Q299.77 45 307.57 45Q315.47 45 321.37 48.35Q327.27 51.7 330.52 57.6Q333.77 63.5 333.77 71.3Q333.77 79 330.52 85.05Q327.27 91.1 321.37 94.55Q315.47 98 307.57 98ZM307.57 89.5Q312.27 89.5 315.72 87.2Q319.17 84.9 321.17 80.8Q323.17 76.7 323.17 71.2Q323.17 63 318.82 58.25Q314.47 53.5 307.57 53.5Q300.77 53.5 296.42 58.3Q292.07 63.1 292.07 71.2Q292.07 76.7 294.02 80.8Q295.97 84.9 299.52 87.2Q303.07 89.5 307.57 89.5Z" fill="#faf5ea" opacity="0.75"/></g>
</svg>
