<svg xmlns="http://www.w3.org/2000/svg" viewBox="0 0 1200 630">
  <rect width="1200" height="630" fill="#17130e"/>
  <ellipse cx="600" cy="700" rx="720" ry="260" fill="#e8590c" opacity="0.16"/>
  <ellipse cx="600" cy="740" rx="460" ry="180" fill="#f5921b" opacity="0.14"/>
  <g transform="translate(96 96)">
    <rect x="3.5" y="3.5" width="57" height="57" rx="16" stroke="#faf5ea" stroke-width="5" fill="none"/>
    <path d="M14 42h9.5L32 25.5 40.5 42H50" stroke="#faf5ea" stroke-width="5" stroke-linecap="round" stroke-linejoin="round" fill="none"/>
    <circle cx="32" cy="15.5" r="4.5" fill="#f5921b"/>
  </g>
  <g transform="translate(96 321.9) scale(0.2400)"><g transform="translate(0.0 0)"><path d="M39.1 98Q31.6 98 25.2 95.25Q18.8 92.5 14.15 87.55Q9.5 82.6 6.9 75.8Q4.3 69 4.3 60.9Q4.3 52.8 6.85 46.05Q9.4 39.3 14.05 34.35Q18.7 29.4 25.1 26.7Q31.5 24 39 24Q47.4 24 54.1 27.35Q60.8 30.7 65.05 36.8Q69.3 42.9 70.3 51L59.9 51Q58.6 42.5 53.05 37.75Q47.5 33 39.1 33Q32 33 26.55 36.45Q21.1 39.9 18.1 46.15Q15.1 52.4 15.1 60.9Q15.1 69.3 18.15 75.65Q21.2 82 26.6 85.5Q32 89 39.1 89Q47.5 89 53.15 84.25Q58.8 79.5 60 71L70.5 71Q69.4 79.2 65.1 85.25Q60.8 91.3 54.15 94.65Q47.5 98 39.1 98Z" fill="#f5921b"/></g><g transform="translate(100.4 0)"><path d="M39.5 98Q31.8 98 25.4 95.25Q19 92.5 14.3 87.5Q9.6 82.5 6.95 75.7Q4.3 68.9 4.3 60.7Q4.3 49.9 8.8 41.6Q13.3 33.3 21.25 28.65Q29.2 24 39.4 24Q49.8 24 57.7 28.65Q65.6 33.3 70.15 41.6Q74.7 49.9 74.7 60.8Q74.7 68.9 72.05 75.75Q69.4 82.6 64.7 87.55Q60 92.5 53.55 95.25Q47.1 98 39.5 98ZM39.4 89Q46.6 89 52.1 85.35Q57.6 81.7 60.75 75.3Q63.9 68.9 63.9 60.6Q63.9 52.4 60.8 46.15Q57.7 39.9 52.2 36.45Q46.7 33 39.4 33Q32.1 33 26.65 36.45Q21.2 39.9 18.15 46.1Q15.1 52.3 15.1 60.6Q15.1 69 18.2 75.4Q21.3 81.8 26.75 85.4Q32.2 89 39.4 89Z" fill="#f5921b"/></g><g transform="translate(205.4 0)"><path d="M7.4 97L7.4 25L19.7 25L57.9 86.6L55.5 87.1L55.5 25L65.7 25L65.7 97L53.4 97L15.2 35.4L17.6 34.9L17.6 97Z" fill="#f5921b"/></g><g transform="translate(304.5 0)"><path d="M27.5 97L27.5 33.7L3.2 33.7L3.2 25L62.4 25L62.4 33.7L38.1 33.7L38.1 97Z" fill="#f5921b"/></g><g transform="translate(396.1 0)"><path d="M3.2 97L30.3 25L39.5 25L13.6 97ZM58.9 97L33 25L42.7 25L69.9 97ZM16.9 68.3L55.5 68.3L55.5 77.1L16.9 77.1Z" fill="#f5921b"/></g><g transform="translate(495.1 0)"><path d="M39.1 98Q31.6 98 25.2 95.25Q18.8 92.5 14.15 87.55Q9.5 82.6 6.9 75.8Q4.3 69 4.3 60.9Q4.3 52.8 6.85 46.05Q9.4 39.3 14.05 34.35Q18.7 29.4 25.1 26.7Q31.5 24 39 24Q47.4 24 54.1 27.35Q60.8 30.7 65.05 36.8Q69.3 42.9 70.3 51L59.9 51Q58.6 42.5 53.05 37.75Q47.5 33 39.1 33Q32 33 26.55 36.45Q21.1 39.9 18.1 46.15Q15.1 52.4 15.1 60.9Q15.1 69.3 18.15 75.65Q21.2 82 26.6 85.5Q32 89 39.1 89Q47.5 89 53.15 84.25Q58.8 79.5 60 71L70.5 71Q69.4 79.2 65.1 85.25Q60.8 91.3 54.15 94.65Q47.5 98 39.1 98Z" fill="#f5921b"/></g><g transform="translate(595.5 0)"><path d="M27.5 97L27.5 33.7L3.2 33.7L3.2 25L62.4 25L62.4 33.7L38.1 33.7L38.1 97Z" fill="#f5921b"/></g></g>
  <g transform="translate(96 365.9) scale(0.8400)"><path d="M9.05 27.8L52.75 27.8Q53.75 27.8 54.68 27.48Q55.6 27.15 56.28 26.83Q56.95 26.5 57.15 26.5Q57.3 26.5 57.4 26.63Q57.5 26.75 57.6 27.5L60.75 46.7Q60.85 47.05 60.8 47.23Q60.75 47.4 60.6 47.45Q60.45 47.5 60.3 47.43Q60.15 47.35 60.05 47.05Q56.75 39.2 54.05 35.28Q51.35 31.35 48.93 30.03Q46.5 28.7 44.1 28.7L38.1 28.7L38.1 95.1Q38.1 95.7 38.58 96.03Q39.05 96.35 40 96.5L44.1 97.1Q44.7 97.15 44.7 97.5Q44.7 97.8 44.2 97.8L18 97.8Q17.75 97.8 17.63 97.7Q17.5 97.6 17.5 97.5Q17.5 97.15 18.1 97.1L22.2 96.5Q23.15 96.35 23.63 96.03Q24.1 95.7 24.1 95.1L24.1 28.7L18.1 28.7Q15.75 28.7 13.35 30.18Q10.95 31.65 8.22 35.63Q5.5 39.6 2.15 47.05Q2.05 47.35 1.9 47.43Q1.75 47.5 1.6 47.45Q1.45 47.4 1.4 47.23Q1.35 47.05 1.45 46.7L4.6 27.5Q4.7 26.75 4.83 26.63Q4.95 26.5 5.05 26.5Q5.25 26.5 5.8 26.83Q6.35 27.15 7.2 27.48Q8.05 27.8 9.05 27.8ZM82.65 93.2L82.65 92.7L82.1 93.2L82.1 61Q82.1 57.4 80.6 55.48Q79.1 53.55 76.35 53.55Q73.2 53.55 71.65 55.15Q70.1 56.75 70.1 58.7L70.1 62.7Q70.1 65.25 68.32 66.95Q66.55 68.65 63.8 68.65Q61.85 68.65 60.57 67.48Q59.3 66.3 59.3 63.85Q59.3 61.25 61.4 58.73Q63.5 56.2 67.6 54.55Q71.7 52.9 77.75 52.9Q85.95 52.9 90.02 56.33Q94.1 59.75 94.1 66.05L94.1 92Q94.1 93.75 94.7 94.53Q95.3 95.3 96.2 95.3Q97.05 95.3 97.8 94.75Q98.55 94.2 98.7 92.95Q98.7 92.75 98.77 92.68Q98.85 92.6 98.95 92.6Q99.05 92.6 99.1 92.68Q99.15 92.75 99.15 92.9Q99.15 93.85 98.3 95.2Q97.45 96.55 95.5 97.63Q93.55 98.7 90.3 98.7Q86.3 98.7 84.47 97.15Q82.65 95.6 82.65 93.2ZM56.8 88.05Q56.8 82.65 61.3 79.33Q65.8 76 75.6 76Q78.7 76 80.65 76.63Q82.6 77.25 84.25 78.15L83.9 78.5Q82.2 77.65 80.42 77.23Q78.65 76.8 76.5 76.8Q72.75 76.8 70.72 79.3Q68.7 81.8 68.7 86.35Q68.7 90.7 70.65 93.03Q72.6 95.35 75.75 95.35Q77.8 95.35 79.82 94.35Q81.85 93.35 83.2 91.5L83.75 91.85Q81.55 95.2 77.72 96.98Q73.9 98.75 69.5 98.75Q63.9 98.75 60.35 95.75Q56.8 92.75 56.8 88.05ZM118.78 24.15L118.78 95.05Q118.78 95.7 119.08 96.1Q119.38 96.5 120.03 96.65L122.73 97.1Q123.08 97.1 123.18 97.23Q123.28 97.35 123.28 97.5Q123.28 97.6 123.15 97.7Q123.03 97.8 122.83 97.8L102.73 97.8Q102.58 97.8 102.45 97.7Q102.33 97.6 102.33 97.5Q102.33 97.35 102.48 97.23Q102.63 97.1 102.98 97.05L105.68 96.65Q106.33 96.45 106.6 96.08Q106.88 95.7 106.88 95.05L106.88 29.1Q106.88 28.8 106.73 28.65Q106.58 28.5 106.23 28.5L102.93 28.5Q102.73 28.5 102.63 28.4Q102.53 28.3 102.53 28.15Q102.53 28 102.65 27.9Q102.78 27.8 102.93 27.75L117.23 23.75Q117.73 23.6 117.9 23.58Q118.08 23.55 118.28 23.55Q118.58 23.55 118.68 23.73Q118.78 23.9 118.78 24.15ZM128.77 97.8Q128.62 97.8 128.49 97.7Q128.37 97.6 128.37 97.5Q128.37 97.35 128.52 97.23Q128.67 97.1 129.02 97.05L131.72 96.65Q132.37 96.45 132.64 96.08Q132.92 95.7 132.92 95.05L132.92 29.1Q132.92 28.8 132.77 28.65Q132.62 28.5 132.27 28.5L128.97 28.5Q128.77 28.5 128.67 28.4Q128.57 28.3 128.57 28.15Q128.57 28 128.69 27.9Q128.82 27.8 128.97 27.75L143.27 23.75Q143.77 23.65 143.94 23.6Q144.12 23.55 144.32 23.55Q144.57 23.55 144.69 23.73Q144.82 23.9 144.82 24.15L144.82 95.05Q144.82 95.7 145.12 96.1Q145.42 96.5 146.07 96.65L148.77 97.1Q149.32 97.2 149.32 97.45Q149.32 97.8 148.87 97.8ZM142.97 81.1L162.22 61.65Q164.52 59.4 163.92 57.5Q163.32 55.6 160.52 55L158.57 54.65Q158.27 54.55 158.14 54.45Q158.02 54.35 158.02 54.3Q158.02 54.1 158.14 54Q158.27 53.9 158.47 53.9L176.32 53.9Q176.57 53.9 176.69 53.98Q176.82 54.05 176.82 54.25Q176.82 54.4 176.67 54.5Q176.52 54.6 176.17 54.65Q172.52 55.45 169.24 57.23Q165.97 59 163.07 61.95L143.57 81.75ZM157.97 66.5L174.12 94.4Q174.87 95.7 175.67 96.23Q176.47 96.75 177.72 97.1Q178.07 97.25 178.17 97.33Q178.27 97.4 178.27 97.55Q178.27 97.65 178.17 97.73Q178.07 97.8 177.82 97.8L156.17 97.8Q156.02 97.8 155.89 97.73Q155.77 97.65 155.77 97.45Q155.77 97.35 155.89 97.25Q156.02 97.15 156.32 97.1L158.52 96.75Q159.72 96.55 160.02 95.93Q160.32 95.3 159.77 94.25L149.47 75.3ZM198.87 55.5L194.52 54.65Q194.27 54.55 194.14 54.48Q194.02 54.4 194.02 54.25Q194.02 54.15 194.14 54.03Q194.27 53.9 194.37 53.9L198.72 53.9Q199.07 53.9 199.27 53.8Q199.47 53.7 199.72 53.45L209.37 43.95Q209.67 43.75 209.94 43.58Q210.22 43.4 210.42 43.4Q210.72 43.4 210.87 43.6Q211.02 43.8 211.02 44.15L211.02 86.25Q211.02 90.3 212.57 92.28Q214.12 94.25 216.77 94.25Q217.72 94.25 218.59 93.98Q219.47 93.7 220.19 93.1Q220.92 92.5 221.49 91.45Q222.07 90.4 222.47 88.95Q222.57 88.65 222.79 88.7Q223.02 88.75 222.92 89.05Q222.12 92.3 220.69 94.45Q219.27 96.6 217.04 97.65Q214.82 98.7 211.67 98.7Q205.82 98.7 202.67 95.95Q199.52 93.2 199.52 87.5L199.52 56.5Q199.52 56.05 199.39 55.83Q199.27 55.6 198.87 55.5ZM207.37 54.95L207.72 53.9L222.57 53.9Q222.82 53.9 222.92 54Q223.02 54.1 223.02 54.25Q223.02 54.55 222.72 54.75Q222.42 54.95 221.82 54.95ZM248.04 52.9Q254.64 52.9 259.74 55.85Q264.84 58.8 267.74 64Q270.64 69.2 270.64 76.05Q270.64 82.75 267.66 87.9Q264.69 93.05 259.44 95.93Q254.19 98.8 247.44 98.8Q240.84 98.8 235.76 95.93Q230.69 93.05 227.81 87.93Q224.94 82.8 224.94 76.05Q224.94 69.3 227.89 64.1Q230.84 58.9 236.06 55.9Q241.29 52.9 248.04 52.9ZM250.49 97.95Q253.59 97.65 255.56 94.98Q257.54 92.3 258.21 87.23Q258.89 82.15 258.04 74.85Q257.19 67.5 255.39 62.7Q253.59 57.9 250.99 55.7Q248.39 53.5 245.14 53.8Q241.94 54.15 239.99 56.88Q238.04 59.6 237.44 64.65Q236.84 69.7 237.69 76.9Q238.54 84.15 240.36 88.95Q242.19 93.75 244.79 96Q247.39 98.25 250.49 97.95ZM316.61 93.2L316.61 92.7L316.06 93.2L316.06 61Q316.06 57.4 314.56 55.48Q313.06 53.55 310.31 53.55Q307.16 53.55 305.61 55.15Q304.06 56.75 304.06 58.7L304.06 62.7Q304.06 65.25 302.28 66.95Q300.51 68.65 297.76 68.65Q295.81 68.65 294.53 67.48Q293.26 66.3 293.26 63.85Q293.26 61.25 295.36 58.73Q297.46 56.2 301.56 54.55Q305.66 52.9 311.71 52.9Q319.91 52.9 323.98 56.33Q328.06 59.75 328.06 66.05L328.06 92Q328.06 93.75 328.66 94.53Q329.26 95.3 330.16 95.3Q331.01 95.3 331.76 94.75Q332.51 94.2 332.66 92.95Q332.66 92.75 332.73 92.68Q332.81 92.6 332.91 92.6Q333.01 92.6 333.06 92.68Q333.11 92.75 333.11 92.9Q333.11 93.85 332.26 95.2Q331.41 96.55 329.46 97.63Q327.51 98.7 324.26 98.7Q320.26 98.7 318.43 97.15Q316.61 95.6 316.61 93.2ZM290.76 88.05Q290.76 82.65 295.26 79.33Q299.76 76 309.56 76Q312.66 76 314.61 76.63Q316.56 77.25 318.21 78.15L317.86 78.5Q316.16 77.65 314.38 77.23Q312.61 76.8 310.46 76.8Q306.71 76.8 304.68 79.3Q302.66 81.8 302.66 86.35Q302.66 90.7 304.61 93.03Q306.56 95.35 309.71 95.35Q311.76 95.35 313.78 94.35Q315.81 93.35 317.16 91.5L317.71 91.85Q315.51 95.2 311.68 96.98Q307.86 98.75 303.46 98.75Q297.86 98.75 294.31 95.75Q290.76 92.75 290.76 88.05ZM367.74 53.3L367.74 59.85L367.74 60.3L367.74 118.45Q367.74 119.1 368.04 119.5Q368.34 119.9 368.99 120L372.14 120.5Q372.44 120.55 372.54 120.65Q372.64 120.75 372.64 120.9Q372.64 121 372.54 121.1Q372.44 121.2 372.24 121.2L352.09 121.2Q351.94 121.2 351.81 121.1Q351.69 121 351.69 120.9Q351.69 120.75 351.84 120.63Q351.99 120.5 352.34 120.45L354.64 120.05Q355.29 119.9 355.56 119.5Q355.84 119.1 355.84 118.45L355.84 58.25Q355.84 57.95 355.69 57.78Q355.54 57.6 355.19 57.6L351.89 57.6Q351.69 57.6 351.59 57.53Q351.49 57.45 351.49 57.25Q351.49 57.05 351.61 56.98Q351.74 56.9 351.89 56.85L366.19 52.9Q366.69 52.75 366.86 52.73Q367.04 52.7 367.24 52.7Q367.54 52.7 367.64 52.88Q367.74 53.05 367.74 53.3ZM366.94 61.8L366.39 61.15Q369.69 57 373.29 54.95Q376.89 52.9 381.49 52.9Q386.79 52.9 390.91 55.53Q395.04 58.15 397.36 63Q399.69 67.85 399.69 74.55Q399.69 82.05 396.99 87.5Q394.29 92.95 389.61 95.9Q384.94 98.85 379.14 98.85Q374.29 98.85 371.19 97.05Q368.09 95.25 366.04 91.4L366.94 90.95Q368.34 93.95 370.61 95.53Q372.89 97.1 375.84 97.1Q379.19 97.1 381.84 95.15Q384.49 93.2 386.01 88.55Q387.54 83.9 387.54 75.95Q387.54 68.55 386.19 64.03Q384.84 59.5 382.49 57.4Q380.14 55.3 377.19 55.3Q374.79 55.3 372.14 56.88Q369.49 58.45 366.94 61.8ZM443.97 71.95Q443.97 72.35 443.69 72.65Q443.42 72.95 442.87 72.95L411.82 72.95L411.82 72.05L431.22 72.05Q432.07 72.05 432.07 71.1Q432.07 62.2 429.69 57.95Q427.32 53.7 423.92 53.7Q421.12 53.7 419.07 55.63Q417.02 57.55 415.89 61.5Q414.77 65.45 414.77 71.55Q414.77 81.85 419.09 87Q423.42 92.15 430.37 92.15Q435.52 92.15 439.07 89.28Q442.62 86.4 443.12 81.5Q443.12 81.3 443.22 81.23Q443.32 81.15 443.32 81.15Q443.47 81.15 443.59 81.25Q443.72 81.35 443.67 81.65Q443.37 86.55 440.82 90.45Q438.27 94.35 434.04 96.58Q429.82 98.8 424.52 98.8Q418.32 98.8 413.64 96.08Q408.97 93.35 406.32 88.35Q403.67 83.35 403.67 76.75Q403.67 69.6 406.37 64.25Q409.07 58.9 413.94 55.9Q418.82 52.9 425.37 52.9Q431.02 52.9 435.19 55.38Q439.37 57.85 441.67 62.18Q443.97 66.5 443.97 71.95ZM463.27 72.85Q463.27 66.25 465.19 61.83Q467.12 57.4 470.09 55.18Q473.07 52.95 476.27 52.95Q479.97 52.95 481.97 55.28Q483.97 57.6 483.97 61.85Q483.97 65.6 482.22 67.43Q480.47 69.25 477.87 69.25Q475.42 69.25 474.24 67.9Q473.07 66.55 472.92 63.85L472.87 62.25Q472.87 60.75 472.24 59.95Q471.62 59.15 470.22 59.15Q468.57 59.15 467.14 60.68Q465.72 62.2 464.79 65.33Q463.87 68.45 463.87 73.15ZM463.87 53.95L463.87 70.55L463.87 94.75Q463.87 95.3 464.19 95.75Q464.52 96.2 465.17 96.35L470.07 97.1Q470.37 97.15 470.44 97.23Q470.52 97.3 470.52 97.5Q470.52 97.6 470.39 97.7Q470.27 97.8 470.07 97.8L447.92 97.8Q447.67 97.8 447.52 97.68Q447.37 97.55 447.37 97.5Q447.37 97.3 447.54 97.2Q447.72 97.1 448.02 97.05L450.72 96.65Q451.37 96.5 451.64 96.13Q451.92 95.75 451.92 95.25L451.92 58.35Q451.92 58.05 451.79 57.85Q451.67 57.65 451.32 57.65L447.87 57.65Q447.77 57.6 447.64 57.5Q447.52 57.4 447.52 57.3Q447.52 57.15 447.62 57.03Q447.72 56.9 448.02 56.9L462.32 53.5Q462.72 53.35 462.92 53.33Q463.12 53.3 463.37 53.3Q463.67 53.3 463.77 53.5Q463.87 53.7 463.87 53.95ZM502.93 53.85Q499.53 53.85 497.48 55.65Q495.43 57.45 495.43 60.4Q495.43 62.4 496.38 64.05Q497.33 65.7 499.6 67.1Q501.88 68.5 505.83 69.75Q511.73 71.7 515.08 74Q518.43 76.3 519.83 79.2Q521.23 82.1 521.23 85.7Q521.23 92 517 95.4Q512.78 98.8 505.68 98.8Q502.63 98.8 500.65 98.23Q498.68 97.65 497.65 97.08Q496.63 96.5 496.33 96.5Q495.78 96.5 494.5 97.05Q493.23 97.6 492 98.2Q490.78 98.8 490.48 98.8Q490.33 98.8 490.15 98.7Q489.98 98.6 489.88 98.3L487.23 83.85Q487.18 83.4 487.2 83.18Q487.23 82.95 487.38 82.9Q487.53 82.75 487.68 82.83Q487.83 82.9 487.93 83.15Q490.83 88.7 493.5 91.93Q496.18 95.15 499.03 96.53Q501.88 97.9 505.18 97.9Q508.98 97.9 511.03 96Q513.08 94.1 513.08 90.95Q513.08 88.85 512.1 87.15Q511.13 85.45 508.65 84.03Q506.18 82.6 501.58 81.3Q496.28 79.8 493.1 77.58Q489.93 75.35 488.5 72.48Q487.08 69.6 487.08 66.1Q487.08 62.05 489.05 59.08Q491.03 56.1 494.4 54.48Q497.78 52.85 502.03 52.85Q504.78 52.85 506.75 53.63Q508.73 54.4 509.95 55.18Q511.18 55.95 511.48 55.95Q511.78 55.95 512.85 55.25Q513.93 54.55 515.05 53.83Q516.18 53.1 516.58 53.1Q516.83 53.1 517.08 53.3Q517.33 53.5 517.38 54.05L519.58 66.4Q519.68 66.95 519.63 67.18Q519.58 67.4 519.33 67.55Q519.23 67.6 519.13 67.5Q519.03 67.4 518.88 67.2Q514.88 59.95 510.88 56.9Q506.88 53.85 502.93 53.85ZM548.73 52.9Q555.33 52.9 560.43 55.85Q565.53 58.8 568.43 64Q571.33 69.2 571.33 76.05Q571.33 82.75 568.35 87.9Q565.38 93.05 560.13 95.93Q554.88 98.8 548.13 98.8Q541.53 98.8 536.45 95.93Q531.38 93.05 528.5 87.93Q525.63 82.8 525.63 76.05Q525.63 69.3 528.58 64.1Q531.53 58.9 536.75 55.9Q541.98 52.9 548.73 52.9ZM551.18 97.95Q554.28 97.65 556.25 94.98Q558.23 92.3 558.9 87.23Q559.58 82.15 558.73 74.85Q557.88 67.5 556.08 62.7Q554.28 57.9 551.68 55.7Q549.08 53.5 545.83 53.8Q542.63 54.15 540.68 56.88Q538.73 59.6 538.13 64.65Q537.53 69.7 538.38 76.9Q539.23 84.15 541.05 88.95Q542.88 93.75 545.48 96Q548.08 98.25 551.18 97.95ZM591.45 53.6L591.45 95.05Q591.45 95.7 591.75 96.1Q592.05 96.5 592.7 96.65L595.4 97.1Q595.95 97.2 595.95 97.45Q595.95 97.8 595.5 97.8L575.4 97.8Q575.25 97.8 575.12 97.7Q575 97.6 575 97.5Q575 97.35 575.1 97.28Q575.2 97.2 575.45 97.15L578.35 96.65Q579 96.45 579.27 96.08Q579.55 95.7 579.55 95.05L579.55 58.55Q579.55 58.25 579.4 58.08Q579.25 57.9 578.9 57.9L575.6 57.9Q575.4 57.9 575.3 57.83Q575.2 57.75 575.2 57.55Q575.2 57.35 575.32 57.3Q575.45 57.25 575.6 57.2L589.9 53.2Q590.4 53.1 590.57 53.05Q590.75 53 590.95 53Q591.2 53 591.32 53.18Q591.45 53.35 591.45 53.6ZM590.4 63.45L589.95 62.95L591.75 61.3Q596.95 56.65 601.07 54.8Q605.2 52.95 608.7 52.95Q613.65 52.95 616.8 55.98Q619.95 59 619.95 65.5L619.95 94.75Q619.95 95.55 620.32 96.05Q620.7 96.55 621.5 96.7L623.9 97.15Q624.2 97.15 624.3 97.25Q624.4 97.35 624.4 97.5Q624.4 97.6 624.27 97.7Q624.15 97.8 623.95 97.8L603.75 97.8Q603.3 97.8 603.3 97.45Q603.3 97.2 603.85 97.1L606.65 96.65Q607.45 96.45 607.75 95.98Q608.05 95.5 608.05 94.75L608.05 66.65Q608.05 62.25 606.07 60.23Q604.1 58.2 600.75 58.2Q598.65 58.2 596.5 59.08Q594.35 59.95 592.2 61.9ZM635.22 98.7Q633.27 98.7 631.64 97.68Q630.02 96.65 629.09 94.93Q628.17 93.2 628.17 91.2Q628.17 89.2 629.09 87.5Q630.02 85.8 631.64 84.8Q633.27 83.8 635.22 83.8Q637.27 83.8 638.89 84.8Q640.52 85.8 641.47 87.5Q642.42 89.2 642.42 91.15Q642.42 93.2 641.47 94.93Q640.52 96.65 638.92 97.68Q637.32 98.7 635.22 98.7Z" fill="#faf5ea"/></g>
  <g transform="translate(96 504) scale(0.28)"><path d="M11.4 97L11.4 40.1Q11.4 32.3 15.8 28.15Q20.2 24 29 24Q31 24 32.3 24.2Q33.6 24.4 34.6 24.8L34.6 32.8Q33.9 32.6 32.75 32.4Q31.6 32.2 30.2 32.2Q25.8 32.2 23.8 34.35Q21.8 36.5 21.8 40.4L21.8 97ZM1.6 54.3L1.6 46L33.5 46L33.5 54.3ZM73.03 97Q72.53 95.1 72.38 92.8Q72.23 90.5 72.23 87.2L71.73 87.2L71.73 62.9Q71.73 58 69.28 55.55Q66.83 53.1 61.53 53.1Q56.43 53.1 53.38 55.1Q50.33 57.1 49.83 60.8L39.93 60.8Q40.63 53.6 46.43 49.3Q52.23 45 61.93 45Q71.93 45 76.93 49.65Q81.93 54.3 81.93 63.3L81.93 87.2Q81.93 89.5 82.23 91.9Q82.53 94.3 83.13 97ZM55.43 98Q47.63 98 43.03 94.15Q38.43 90.3 38.43 83.7Q38.43 76.9 43.28 72.95Q48.13 69 57.23 67.6L74.03 64.9L74.03 72.2L58.83 74.6Q53.73 75.4 51.18 77.3Q48.63 79.2 48.63 82.8Q48.63 86.3 50.98 88.05Q53.33 89.8 57.83 89.8Q63.83 89.8 67.78 86.9Q71.73 84 71.73 79.6L73.03 87Q71.23 92.3 66.63 95.15Q62.03 98 55.43 98ZM90.07 118.5Q88.27 118.5 86.97 118.3Q85.67 118.1 84.67 117.7L84.67 109.7Q85.37 109.9 86.52 110.1Q87.67 110.3 88.87 110.3Q92.37 110.3 93.82 108.75Q95.27 107.2 95.27 104.1L95.27 46L105.67 46L105.67 104.4Q105.67 111.1 101.92 114.8Q98.17 118.5 90.07 118.5ZM94.77 36L94.77 24.3L106.27 24.3L106.27 36ZM119.73 97L119.73 46L130.13 46L130.13 97ZM119.23 36L119.23 24.3L130.73 24.3L130.73 36ZM166.03 98Q157.13 98 152.98 93.85Q148.83 89.7 148.83 81.6L148.83 34.3L159.13 30.4L159.13 81.7Q159.13 85.7 161.23 87.6Q163.33 89.5 168.03 89.5Q169.83 89.5 171.23 89.2Q172.63 88.9 173.63 88.5L173.63 96.9Q172.53 97.4 170.53 97.7Q168.53 98 166.03 98ZM138.63 54.3L138.63 46L173.63 46L173.63 54.3ZM214.77 97Q214.27 95.1 214.12 92.8Q213.97 90.5 213.97 87.2L213.47 87.2L213.47 62.9Q213.47 58 211.02 55.55Q208.57 53.1 203.27 53.1Q198.17 53.1 195.12 55.1Q192.07 57.1 191.57 60.8L181.67 60.8Q182.37 53.6 188.17 49.3Q193.97 45 203.67 45Q213.67 45 218.67 49.65Q223.67 54.3 223.67 63.3L223.67 87.2Q223.67 89.5 223.97 91.9Q224.27 94.3 224.87 97ZM197.17 98Q189.37 98 184.77 94.15Q180.17 90.3 180.17 83.7Q180.17 76.9 185.02 72.95Q189.87 69 198.97 67.6L215.77 64.9L215.77 72.2L200.57 74.6Q195.47 75.4 192.92 77.3Q190.37 79.2 190.37 82.8Q190.37 86.3 192.72 88.05Q195.07 89.8 199.57 89.8Q205.57 89.8 209.52 86.9Q213.47 84 213.47 79.6L214.77 87Q212.97 92.3 208.37 95.15Q203.77 98 197.17 98ZM233.87 97L233.87 84.6L246.17 84.6L246.17 97ZM260.57 97L260.57 46L270.97 46L270.97 97ZM260.07 36L260.07 24.3L271.57 24.3L271.57 36ZM307.57 98Q299.77 98 293.87 94.55Q287.97 91.1 284.67 85.05Q281.37 79 281.37 71.3Q281.37 63.5 284.72 57.6Q288.07 51.7 293.92 48.35Q299.77 45 307.57 45Q315.47 45 321.37 48.35Q327.27 51.7 330.52 57.6Q333.77 63.5 333.77 71.3Q333.77 79 330.52 85.05Q327.27 91.1 321.37 94.55Q315.47 98 307.57 98ZM307.57 89.5Q312.27 89.5 315.72 87.2Q319.17 84.9 321.17 80.8Q323.17 76.7 323.17 71.2Q323.17 63 318.82 58.25Q314.47 53.5 307.57 53.5Q300.77 53.5 296.42 58.3Q292.07 63.1 292.07 71.2Q292.07 76.7 294.02 80.8Q295.97 84.9 299.52 87.2Q303.07 89.5 307.57 89.5Z" fill="#faf5ea" opacity="0.75"/></g>
</svg>
