<svg xmlns="http://www.w3.org/2000/svg" viewBox="0 0 1200 630">
  <rect width="1200" height="630" fill="#17130e"/>
  <ellipse cx="600" cy="700" rx="720" ry="260" fill="#e8590c" opacity="0.16"/>
  <ellipse cx="600" cy="740" rx="460" ry="180" fill="#f5921b" opacity="0.14"/>
  <g transform="translate(96 96)">
    <rect x="3.5" y="3.5" width="57" height="57" rx="16" stroke="#faf5ea" stroke-width="5" fill="none"/>
    <path d="M14 42h9.5L32 25.5 40.5 42H50" stroke="#faf5ea" stroke-width="5" stroke-linecap="round" stroke-linejoin="round" fill="none"/>
    <circle cx="32" cy="15.5" r="4.5" fill="#f5921b"/>
  </g>
  <g transform="translate(96 321.9) scale(0.2400)"><g transform="translate(0.0 0)"><path d="M7.4 97L7.4 25L37.9 25Q45.7 25 51.2 27.6Q56.7 30.2 59.65 35Q62.6 39.8 62.6 46.4Q62.6 53.1 59.65 57.95Q56.7 62.8 51.15 65.5Q45.6 68.2 37.9 68.2L15.5 68.2L15.5 59.4L37.4 59.4Q44.5 59.4 48.25 56Q52 52.6 52 46.5Q52 40.3 48.3 37Q44.6 33.7 37.4 33.7L18 33.7L18 97Z" fill="#f5921b"/></g><g transform="translate(92.1 0)"><path d="M7.3 97L7.3 25L35.7 25Q43.5 25 49 27.55Q54.5 30.1 57.5 34.65Q60.5 39.2 60.5 45.4Q60.5 51.6 57.5 56.2Q54.5 60.8 49 63.4Q43.5 66 35.7 66L15.3 66L15.3 57.4L35.4 57.4Q42.6 57.4 46.35 54.25Q50.1 51.1 50.1 45.5Q50.1 39.9 46.4 36.8Q42.7 33.7 35.4 33.7L17.9 33.7L17.9 97ZM48.9 97L13.8 60.7L26.7 60.7L64.1 97Z" fill="#f5921b"/></g><g transform="translate(184.1 0)"><path d="M7.4 97L7.4 25L18 25L18 97Z" fill="#f5921b"/></g><g transform="translate(235.5 0)"><path d="M39.1 98Q31.6 98 25.2 95.25Q18.8 92.5 14.15 87.55Q9.5 82.6 6.9 75.8Q4.3 69 4.3 60.9Q4.3 52.8 6.85 46.05Q9.4 39.3 14.05 34.35Q18.7 29.4 25.1 26.7Q31.5 24 39 24Q47.4 24 54.1 27.35Q60.8 30.7 65.05 36.8Q69.3 42.9 70.3 51L59.9 51Q58.6 42.5 53.05 37.75Q47.5 33 39.1 33Q32 33 26.55 36.45Q21.1 39.9 18.1 46.15Q15.1 52.4 15.1 60.9Q15.1 69.3 18.15 75.65Q21.2 82 26.6 85.5Q32 89 39.1 89Q47.5 89 53.15 84.25Q58.8 79.5 60 71L70.5 71Q69.4 79.2 65.1 85.25Q60.8 91.3 54.15 94.65Q47.5 98 39.1 98Z" fill="#f5921b"/></g><g transform="translate(335.9 0)"><path d="M7.4 97L7.4 25L18 25L18 97Z" fill="#f5921b"/></g><g transform="translate(387.3 0)"><path d="M7.4 97L7.4 25L19.7 25L57.9 86.6L55.5 87.1L55.5 25L65.7 25L65.7 97L53.4 97L15.2 35.4L17.6 34.9L17.6 97Z" fill="#f5921b"/></g><g transform="translate(486.4 0)"><path d="M40.9 98Q29.6 98 21.4 93.45Q13.2 88.9 8.75 80.7Q4.3 72.5 4.3 61.4Q4.3 50.4 8.75 41.95Q13.2 33.5 21.1 28.75Q29 24 39.3 24Q47.5 24 54.15 27.05Q60.8 30.1 65.05 35.5Q69.3 40.9 70.1 48L59.5 48Q58.5 41.1 53.1 37.05Q47.7 33 39.6 33Q32.2 33 26.7 36.5Q21.2 40 18.15 46.3Q15.1 52.6 15.1 61.2Q15.1 69.9 18.2 76.15Q21.3 82.4 27.25 85.75Q33.2 89.1 41.6 89.1Q47.6 89.1 52.2 87.4Q56.8 85.7 60.2 82.4L70.5 86.3Q64.9 92.1 57.6 95.05Q50.3 98 40.9 98ZM59.9 86.3L59.9 64.2L63 67.3L41.5 67.3L41.5 58.5L70.5 58.5L70.5 86.3Z" fill="#f5921b"/></g></g>
  <g transform="translate(96 365.9) scale(0.8400)"><path d="M9.05 27.8L52.75 27.8Q53.75 27.8 54.68 27.48Q55.6 27.15 56.28 26.83Q56.95 26.5 57.15 26.5Q57.3 26.5 57.4 26.63Q57.5 26.75 57.6 27.5L60.75 46.7Q60.85 47.05 60.8 47.23Q60.75 47.4 60.6 47.45Q60.45 47.5 60.3 47.43Q60.15 47.35 60.05 47.05Q56.75 39.2 54.05 35.28Q51.35 31.35 48.93 30.03Q46.5 28.7 44.1 28.7L38.1 28.7L38.1 95.1Q38.1 95.7 38.58 96.03Q39.05 96.35 40 96.5L44.1 97.1Q44.7 97.15 44.7 97.5Q44.7 97.8 44.2 97.8L18 97.8Q17.75 97.8 17.63 97.7Q17.5 97.6 17.5 97.5Q17.5 97.15 18.1 97.1L22.2 96.5Q23.15 96.35 23.63 96.03Q24.1 95.7 24.1 95.1L24.1 28.7L18.1 28.7Q15.75 28.7 13.35 30.18Q10.95 31.65 8.22 35.63Q5.5 39.6 2.15 47.05Q2.05 47.35 1.9 47.43Q1.75 47.5 1.6 47.45Q1.45 47.4 1.4 47.23Q1.35 47.05 1.45 46.7L4.6 27.5Q4.7 26.75 4.83 26.63Q4.95 26.5 5.05 26.5Q5.25 26.5 5.8 26.83Q6.35 27.15 7.2 27.48Q8.05 27.8 9.05 27.8ZM79.25 63.45L78.8 62.95L80.6 61.3Q85.75 56.65 89.9 54.8Q94.05 52.95 97.55 52.95Q102.5 52.95 105.65 55.98Q108.8 59 108.8 65.5L108.8 94.75Q108.8 95.55 109.17 96.05Q109.55 96.55 110.35 96.7L112.75 97.15Q113.05 97.15 113.15 97.25Q113.25 97.35 113.25 97.5Q113.25 97.6 113.12 97.7Q113 97.8 112.8 97.8L92.6 97.8Q92.15 97.8 92.15 97.45Q92.15 97.2 92.7 97.1L95.5 96.65Q96.3 96.45 96.6 95.98Q96.9 95.5 96.9 94.75L96.9 66.65Q96.9 62.25 94.92 60.23Q92.95 58.2 89.6 58.2Q87.5 58.2 85.32 59.08Q83.15 59.95 81.05 61.9ZM80.3 24.15L80.3 95.05Q80.3 95.7 80.6 96.1Q80.9 96.5 81.55 96.65L84.25 97.1Q84.8 97.2 84.8 97.45Q84.8 97.8 84.35 97.8L64.25 97.8Q64.1 97.8 63.97 97.7Q63.85 97.6 63.85 97.5Q63.85 97.35 64 97.23Q64.15 97.1 64.5 97.05L67.2 96.65Q67.85 96.45 68.12 96.08Q68.4 95.7 68.4 95.05L68.4 29.1Q68.4 28.8 68.25 28.65Q68.1 28.5 67.75 28.5L64.45 28.5Q64.25 28.5 64.15 28.4Q64.05 28.3 64.05 28.15Q64.05 28 64.17 27.9Q64.3 27.8 64.45 27.75L78.75 23.75Q79.25 23.65 79.42 23.6Q79.6 23.55 79.8 23.55Q80.05 23.55 80.17 23.73Q80.3 23.9 80.3 24.15ZM131.72 72.85Q131.72 66.25 133.64 61.83Q135.57 57.4 138.54 55.18Q141.52 52.95 144.72 52.95Q148.42 52.95 150.42 55.28Q152.42 57.6 152.42 61.85Q152.42 65.6 150.67 67.43Q148.92 69.25 146.32 69.25Q143.87 69.25 142.69 67.9Q141.52 66.55 141.37 63.85L141.32 62.25Q141.32 60.75 140.69 59.95Q140.07 59.15 138.67 59.15Q137.02 59.15 135.59 60.68Q134.17 62.2 133.24 65.33Q132.32 68.45 132.32 73.15ZM132.32 53.95L132.32 70.55L132.32 94.75Q132.32 95.3 132.64 95.75Q132.97 96.2 133.62 96.35L138.52 97.1Q138.82 97.15 138.89 97.23Q138.97 97.3 138.97 97.5Q138.97 97.6 138.84 97.7Q138.72 97.8 138.52 97.8L116.37 97.8Q116.12 97.8 115.97 97.68Q115.82 97.55 115.82 97.5Q115.82 97.3 115.99 97.2Q116.17 97.1 116.47 97.05L119.17 96.65Q119.82 96.5 120.09 96.13Q120.37 95.75 120.37 95.25L120.37 58.35Q120.37 58.05 120.24 57.85Q120.12 57.65 119.77 57.65L116.32 57.65Q116.22 57.6 116.09 57.5Q115.97 57.4 115.97 57.3Q115.97 57.15 116.07 57.03Q116.17 56.9 116.47 56.9L130.77 53.5Q131.17 53.35 131.37 53.33Q131.57 53.3 131.82 53.3Q132.12 53.3 132.22 53.5Q132.32 53.7 132.32 53.95ZM195.08 71.95Q195.08 72.35 194.8 72.65Q194.53 72.95 193.98 72.95L162.93 72.95L162.93 72.05L182.33 72.05Q183.18 72.05 183.18 71.1Q183.18 62.2 180.8 57.95Q178.43 53.7 175.03 53.7Q172.23 53.7 170.18 55.63Q168.13 57.55 167 61.5Q165.88 65.45 165.88 71.55Q165.88 81.85 170.2 87Q174.53 92.15 181.48 92.15Q186.63 92.15 190.18 89.28Q193.73 86.4 194.23 81.5Q194.23 81.3 194.33 81.23Q194.43 81.15 194.43 81.15Q194.58 81.15 194.7 81.25Q194.83 81.35 194.78 81.65Q194.48 86.55 191.93 90.45Q189.38 94.35 185.15 96.58Q180.93 98.8 175.63 98.8Q169.43 98.8 164.75 96.08Q160.08 93.35 157.43 88.35Q154.78 83.35 154.78 76.75Q154.78 69.6 157.48 64.25Q160.18 58.9 165.05 55.9Q169.93 52.9 176.48 52.9Q182.13 52.9 186.3 55.38Q190.48 57.85 192.78 62.18Q195.08 66.5 195.08 71.95ZM238.78 71.95Q238.78 72.35 238.5 72.65Q238.23 72.95 237.68 72.95L206.63 72.95L206.63 72.05L226.03 72.05Q226.88 72.05 226.88 71.1Q226.88 62.2 224.5 57.95Q222.13 53.7 218.73 53.7Q215.93 53.7 213.88 55.63Q211.83 57.55 210.7 61.5Q209.58 65.45 209.58 71.55Q209.58 81.85 213.9 87Q218.23 92.15 225.18 92.15Q230.33 92.15 233.88 89.28Q237.43 86.4 237.93 81.5Q237.93 81.3 238.03 81.23Q238.13 81.15 238.13 81.15Q238.28 81.15 238.4 81.25Q238.53 81.35 238.48 81.65Q238.18 86.55 235.63 90.45Q233.08 94.35 228.85 96.58Q224.63 98.8 219.33 98.8Q213.13 98.8 208.45 96.08Q203.78 93.35 201.13 88.35Q198.48 83.35 198.48 76.75Q198.48 69.6 201.18 64.25Q203.88 58.9 208.75 55.9Q213.63 52.9 220.18 52.9Q225.83 52.9 230 55.38Q234.18 57.85 236.48 62.18Q238.78 66.5 238.78 71.95ZM274.08 53.3L274.08 59.85L274.08 60.3L274.08 118.45Q274.08 119.1 274.38 119.5Q274.68 119.9 275.33 120L278.48 120.5Q278.78 120.55 278.88 120.65Q278.98 120.75 278.98 120.9Q278.98 121 278.88 121.1Q278.78 121.2 278.58 121.2L258.43 121.2Q258.28 121.2 258.15 121.1Q258.03 121 258.03 120.9Q258.03 120.75 258.18 120.63Q258.33 120.5 258.68 120.45L260.98 120.05Q261.63 119.9 261.9 119.5Q262.18 119.1 262.18 118.45L262.18 58.25Q262.18 57.95 262.03 57.78Q261.88 57.6 261.53 57.6L258.23 57.6Q258.03 57.6 257.93 57.53Q257.83 57.45 257.83 57.25Q257.83 57.05 257.95 56.98Q258.08 56.9 258.23 56.85L272.53 52.9Q273.03 52.75 273.2 52.73Q273.38 52.7 273.58 52.7Q273.88 52.7 273.98 52.88Q274.08 53.05 274.08 53.3ZM273.28 61.8L272.73 61.15Q276.03 57 279.63 54.95Q283.23 52.9 287.83 52.9Q293.13 52.9 297.25 55.53Q301.38 58.15 303.7 63Q306.03 67.85 306.03 74.55Q306.03 82.05 303.33 87.5Q300.63 92.95 295.95 95.9Q291.28 98.85 285.48 98.85Q280.63 98.85 277.53 97.05Q274.43 95.25 272.38 91.4L273.28 90.95Q274.68 93.95 276.95 95.53Q279.23 97.1 282.18 97.1Q285.53 97.1 288.18 95.15Q290.83 93.2 292.35 88.55Q293.88 83.9 293.88 75.95Q293.88 68.55 292.53 64.03Q291.18 59.5 288.83 57.4Q286.48 55.3 283.53 55.3Q281.13 55.3 278.48 56.88Q275.83 58.45 273.28 61.8ZM326.91 24.15L326.91 95.05Q326.91 95.7 327.21 96.1Q327.51 96.5 328.16 96.65L330.86 97.1Q331.21 97.1 331.31 97.23Q331.41 97.35 331.41 97.5Q331.41 97.6 331.28 97.7Q331.16 97.8 330.96 97.8L310.86 97.8Q310.71 97.8 310.58 97.7Q310.46 97.6 310.46 97.5Q310.46 97.35 310.61 97.23Q310.76 97.1 311.11 97.05L313.81 96.65Q314.46 96.45 314.73 96.08Q315.01 95.7 315.01 95.05L315.01 29.1Q315.01 28.8 314.86 28.65Q314.71 28.5 314.36 28.5L311.06 28.5Q310.86 28.5 310.76 28.4Q310.66 28.3 310.66 28.15Q310.66 28 310.78 27.9Q310.91 27.8 311.06 27.75L325.36 23.75Q325.86 23.6 326.03 23.58Q326.21 23.55 326.41 23.55Q326.71 23.55 326.81 23.73Q326.91 23.9 326.91 24.15ZM360.8 93.2L360.8 92.7L360.25 93.2L360.25 61Q360.25 57.4 358.75 55.48Q357.25 53.55 354.5 53.55Q351.35 53.55 349.8 55.15Q348.25 56.75 348.25 58.7L348.25 62.7Q348.25 65.25 346.47 66.95Q344.7 68.65 341.95 68.65Q340 68.65 338.72 67.48Q337.45 66.3 337.45 63.85Q337.45 61.25 339.55 58.73Q341.65 56.2 345.75 54.55Q349.85 52.9 355.9 52.9Q364.1 52.9 368.17 56.33Q372.25 59.75 372.25 66.05L372.25 92Q372.25 93.75 372.85 94.53Q373.45 95.3 374.35 95.3Q375.2 95.3 375.95 94.75Q376.7 94.2 376.85 92.95Q376.85 92.75 376.92 92.68Q377 92.6 377.1 92.6Q377.2 92.6 377.25 92.68Q377.3 92.75 377.3 92.9Q377.3 93.85 376.45 95.2Q375.6 96.55 373.65 97.63Q371.7 98.7 368.45 98.7Q364.45 98.7 362.62 97.15Q360.8 95.6 360.8 93.2ZM334.95 88.05Q334.95 82.65 339.45 79.33Q343.95 76 353.75 76Q356.85 76 358.8 76.63Q360.75 77.25 362.4 78.15L362.05 78.5Q360.35 77.65 358.57 77.23Q356.8 76.8 354.65 76.8Q350.9 76.8 348.87 79.3Q346.85 81.8 346.85 86.35Q346.85 90.7 348.8 93.03Q350.75 95.35 353.9 95.35Q355.95 95.35 357.97 94.35Q360 93.35 361.35 91.5L361.9 91.85Q359.7 95.2 355.87 96.98Q352.05 98.75 347.65 98.75Q342.05 98.75 338.5 95.75Q334.95 92.75 334.95 88.05ZM396.43 53.6L396.43 95.05Q396.43 95.7 396.73 96.1Q397.03 96.5 397.68 96.65L400.38 97.1Q400.93 97.2 400.93 97.45Q400.93 97.8 400.48 97.8L380.38 97.8Q380.23 97.8 380.1 97.7Q379.98 97.6 379.98 97.5Q379.98 97.35 380.08 97.28Q380.18 97.2 380.43 97.15L383.33 96.65Q383.98 96.45 384.25 96.08Q384.53 95.7 384.53 95.05L384.53 58.55Q384.53 58.25 384.38 58.08Q384.23 57.9 383.88 57.9L380.58 57.9Q380.38 57.9 380.28 57.83Q380.18 57.75 380.18 57.55Q380.18 57.35 380.3 57.3Q380.43 57.25 380.58 57.2L394.88 53.2Q395.38 53.1 395.55 53.05Q395.73 53 395.93 53Q396.18 53 396.3 53.18Q396.43 53.35 396.43 53.6ZM395.38 63.45L394.93 62.95L396.73 61.3Q401.93 56.65 406.05 54.8Q410.18 52.95 413.68 52.95Q418.63 52.95 421.78 55.98Q424.93 59 424.93 65.5L424.93 94.75Q424.93 95.55 425.3 96.05Q425.68 96.55 426.48 96.7L428.88 97.15Q429.18 97.15 429.28 97.25Q429.38 97.35 429.38 97.5Q429.38 97.6 429.25 97.7Q429.13 97.8 428.93 97.8L408.73 97.8Q408.28 97.8 408.28 97.45Q408.28 97.2 408.83 97.1L411.63 96.65Q412.43 96.45 412.73 95.98Q413.03 95.5 413.03 94.75L413.03 66.65Q413.03 62.25 411.05 60.23Q409.08 58.2 405.73 58.2Q403.63 58.2 401.48 59.08Q399.33 59.95 397.18 61.9ZM448.55 53.85Q445.15 53.85 443.1 55.65Q441.05 57.45 441.05 60.4Q441.05 62.4 442 64.05Q442.95 65.7 445.22 67.1Q447.5 68.5 451.45 69.75Q457.35 71.7 460.7 74Q464.05 76.3 465.45 79.2Q466.85 82.1 466.85 85.7Q466.85 92 462.62 95.4Q458.4 98.8 451.3 98.8Q448.25 98.8 446.27 98.23Q444.3 97.65 443.27 97.08Q442.25 96.5 441.95 96.5Q441.4 96.5 440.12 97.05Q438.85 97.6 437.62 98.2Q436.4 98.8 436.1 98.8Q435.95 98.8 435.77 98.7Q435.6 98.6 435.5 98.3L432.85 83.85Q432.8 83.4 432.82 83.18Q432.85 82.95 433 82.9Q433.15 82.75 433.3 82.83Q433.45 82.9 433.55 83.15Q436.45 88.7 439.12 91.93Q441.8 95.15 444.65 96.53Q447.5 97.9 450.8 97.9Q454.6 97.9 456.65 96Q458.7 94.1 458.7 90.95Q458.7 88.85 457.72 87.15Q456.75 85.45 454.27 84.03Q451.8 82.6 447.2 81.3Q441.9 79.8 438.72 77.58Q435.55 75.35 434.12 72.48Q432.7 69.6 432.7 66.1Q432.7 62.05 434.67 59.08Q436.65 56.1 440.02 54.48Q443.4 52.85 447.65 52.85Q450.4 52.85 452.37 53.63Q454.35 54.4 455.57 55.18Q456.8 55.95 457.1 55.95Q457.4 55.95 458.47 55.25Q459.55 54.55 460.67 53.83Q461.8 53.1 462.2 53.1Q462.45 53.1 462.7 53.3Q462.95 53.5 463 54.05L465.2 66.4Q465.3 66.95 465.25 67.18Q465.2 67.4 464.95 67.55Q464.85 67.6 464.75 67.5Q464.65 67.4 464.5 67.2Q460.5 59.95 456.5 56.9Q452.5 53.85 448.55 53.85ZM478.4 98.7Q476.45 98.7 474.82 97.68Q473.2 96.65 472.27 94.93Q471.35 93.2 471.35 91.2Q471.35 89.2 472.27 87.5Q473.2 85.8 474.82 84.8Q476.45 83.8 478.4 83.8Q480.45 83.8 482.07 84.8Q483.7 85.8 484.65 87.5Q485.6 89.2 485.6 91.15Q485.6 93.2 484.65 94.93Q483.7 96.65 482.1 97.68Q480.5 98.7 478.4 98.7ZM526.21 97.5Q526.21 97.6 526.11 97.7Q526.01 97.8 525.81 97.8L506.61 97.8Q506.41 97.8 506.31 97.7Q506.21 97.6 506.21 97.5Q506.21 97.25 506.71 97.1L509.66 96.25Q511.91 95.55 513.41 94Q514.91 92.45 514.91 89.6L514.91 38.85Q514.91 38.15 514.83 37.8Q514.76 37.45 514.26 36.7L509.61 29.1Q509.41 28.7 509.21 28.4Q509.01 28.1 509.01 27.95Q509.01 27.9 509.08 27.85Q509.16 27.8 509.41 27.8L524.66 27.8Q524.96 27.8 525.16 28.05Q525.36 28.3 525.71 28.9L561.46 88.45L560.76 89.9L560.76 36Q560.76 33.1 559.23 31.55Q557.71 30 555.46 29.35L550.91 28.5Q550.41 28.3 550.41 28.1Q550.41 28 550.51 27.9Q550.61 27.8 550.81 27.8L570.01 27.8Q570.21 27.8 570.33 27.9Q570.46 28 570.46 28.1Q570.46 28.3 569.91 28.5L566.91 29.35Q564.71 30 563.18 31.55Q561.66 33.1 561.66 36L561.66 88Q561.66 88.55 561.86 89.05Q562.06 89.55 562.31 89.95L565.81 95.7Q566.36 96.55 566.56 96.95Q566.76 97.35 566.76 97.5Q566.76 97.6 566.63 97.7Q566.51 97.8 566.16 97.8L551.81 97.8Q551.11 97.8 551.11 97.1Q551.11 96.8 550.98 96.4Q550.86 96 550.66 95.65L513.81 35.35L515.91 35.35L515.91 89.65Q515.91 92.45 517.41 94Q518.91 95.55 521.06 96.25L525.66 97.1Q526.21 97.3 526.21 97.5ZM596.89 52.9Q603.49 52.9 608.59 55.85Q613.69 58.8 616.59 64Q619.49 69.2 619.49 76.05Q619.49 82.75 616.51 87.9Q613.54 93.05 608.29 95.93Q603.04 98.8 596.29 98.8Q589.69 98.8 584.61 95.93Q579.54 93.05 576.66 87.93Q573.79 82.8 573.79 76.05Q573.79 69.3 576.74 64.1Q579.69 58.9 584.91 55.9Q590.14 52.9 596.89 52.9ZM599.34 97.95Q602.44 97.65 604.41 94.98Q606.39 92.3 607.06 87.23Q607.74 82.15 606.89 74.85Q606.04 67.5 604.24 62.7Q602.44 57.9 599.84 55.7Q597.24 53.5 593.99 53.8Q590.79 54.15 588.84 56.88Q586.89 59.6 586.29 64.65Q585.69 69.7 586.54 76.9Q587.39 84.15 589.21 88.95Q591.04 93.75 593.64 96Q596.24 98.25 599.34 97.95ZM671.46 92.05L671.46 91.8L671.46 29.1Q671.46 28.8 671.31 28.65Q671.16 28.5 670.81 28.5L667.56 28.5Q667.31 28.5 667.21 28.4Q667.11 28.3 667.11 28.15Q667.11 28 667.23 27.9Q667.36 27.8 667.51 27.75L681.86 23.75Q682.31 23.65 682.48 23.6Q682.66 23.55 682.86 23.55Q683.16 23.55 683.28 23.73Q683.41 23.9 683.41 24.15L683.41 95.05Q683.41 95.7 683.68 96.1Q683.96 96.5 684.56 96.65L687.36 97.1Q687.61 97.1 687.73 97.23Q687.86 97.35 687.86 97.5Q687.86 97.6 687.76 97.7Q687.66 97.8 687.41 97.8L672.76 97.8Q672.11 97.8 671.78 97.45Q671.46 97.1 671.46 96.35ZM639.76 77.15Q639.76 69.65 642.53 64.23Q645.31 58.8 650.06 55.88Q654.81 52.95 660.56 52.95Q665.46 52.95 668.63 54.83Q671.81 56.7 673.81 60.15L672.86 60.55Q671.46 57.75 669.06 56.13Q666.66 54.5 663.36 54.5Q660.16 54.5 657.56 56.6Q654.96 58.7 653.43 63.43Q651.91 68.15 651.91 76.05Q651.91 83 653.18 87.45Q654.46 91.9 656.81 94.05Q659.16 96.2 662.21 96.2Q664.66 96.2 667.26 94.78Q669.86 93.35 672.21 90.2L672.81 90.8Q669.21 95.15 665.81 96.98Q662.41 98.8 658.21 98.8Q652.81 98.8 648.63 96.2Q644.46 93.6 642.11 88.7Q639.76 83.8 639.76 77.15ZM730.3 71.95Q730.3 72.35 730.02 72.65Q729.75 72.95 729.2 72.95L698.15 72.95L698.15 72.05L717.55 72.05Q718.4 72.05 718.4 71.1Q718.4 62.2 716.02 57.95Q713.65 53.7 710.25 53.7Q707.45 53.7 705.4 55.63Q703.35 57.55 702.22 61.5Q701.1 65.45 701.1 71.55Q701.1 81.85 705.42 87Q709.75 92.15 716.7 92.15Q721.85 92.15 725.4 89.28Q728.95 86.4 729.45 81.5Q729.45 81.3 729.55 81.23Q729.65 81.15 729.65 81.15Q729.8 81.15 729.92 81.25Q730.05 81.35 730 81.65Q729.7 86.55 727.15 90.45Q724.6 94.35 720.37 96.58Q716.15 98.8 710.85 98.8Q704.65 98.8 699.97 96.08Q695.3 93.35 692.65 88.35Q690 83.35 690 76.75Q690 69.6 692.7 64.25Q695.4 58.9 700.27 55.9Q705.15 52.9 711.7 52.9Q717.35 52.9 721.52 55.38Q725.7 57.85 728 62.18Q730.3 66.5 730.3 71.95ZM772.55 64.7Q772.55 67.3 771.05 68.9Q769.55 70.5 766.9 70.5Q764.25 70.5 762.67 68.85Q761.1 67.2 761.1 64.1L761.1 60.45Q761.1 57.35 759.42 55.55Q757.75 53.75 754.9 53.75Q751.9 53.75 749.7 55.88Q747.5 58 746.32 61.85Q745.15 65.7 745.15 71Q745.15 77.6 747 82.13Q748.85 86.65 752.12 88.98Q755.4 91.3 759.6 91.3Q764.15 91.3 767.4 89.28Q770.65 87.25 771.85 82.85Q771.85 82.65 771.95 82.6Q772.05 82.55 772.15 82.55Q772.25 82.6 772.32 82.7Q772.4 82.8 772.35 83Q771.4 88.05 768.8 91.55Q766.2 95.05 762.35 96.9Q758.5 98.75 753.55 98.75Q747.9 98.75 743.42 96.25Q738.95 93.75 736.35 88.85Q733.75 83.95 733.75 76.8Q733.75 69.95 736.55 64.55Q739.35 59.15 744.32 56.03Q749.3 52.9 755.85 52.9Q761.25 52.9 764.95 54.43Q768.65 55.95 770.6 58.63Q772.55 61.3 772.55 64.7ZM799.05 52.9Q805.65 52.9 810.75 55.85Q815.85 58.8 818.75 64Q821.65 69.2 821.65 76.05Q821.65 82.75 818.67 87.9Q815.7 93.05 810.45 95.93Q805.2 98.8 798.45 98.8Q791.85 98.8 786.77 95.93Q781.7 93.05 778.82 87.93Q775.95 82.8 775.95 76.05Q775.95 69.3 778.9 64.1Q781.85 58.9 787.07 55.9Q792.3 52.9 799.05 52.9ZM801.5 97.95Q804.6 97.65 806.57 94.98Q808.55 92.3 809.22 87.23Q809.9 82.15 809.05 74.85Q808.2 67.5 806.4 62.7Q804.6 57.9 802 55.7Q799.4 53.5 796.15 53.8Q792.95 54.15 791 56.88Q789.05 59.6 788.45 64.65Q787.85 69.7 788.7 76.9Q789.55 84.15 791.37 88.95Q793.2 93.75 795.8 96Q798.4 98.25 801.5 97.95ZM857.62 92.05L857.62 91.8L857.62 29.1Q857.62 28.8 857.47 28.65Q857.32 28.5 856.97 28.5L853.72 28.5Q853.47 28.5 853.37 28.4Q853.27 28.3 853.27 28.15Q853.27 28 853.39 27.9Q853.52 27.8 853.67 27.75L868.02 23.75Q868.47 23.65 868.64 23.6Q868.82 23.55 869.02 23.55Q869.32 23.55 869.44 23.73Q869.57 23.9 869.57 24.15L869.57 95.05Q869.57 95.7 869.84 96.1Q870.12 96.5 870.72 96.65L873.52 97.1Q873.77 97.1 873.89 97.23Q874.02 97.35 874.02 97.5Q874.02 97.6 873.92 97.7Q873.82 97.8 873.57 97.8L858.92 97.8Q858.27 97.8 857.94 97.45Q857.62 97.1 857.62 96.35ZM825.92 77.15Q825.92 69.65 828.69 64.23Q831.47 58.8 836.22 55.88Q840.97 52.95 846.72 52.95Q851.62 52.95 854.79 54.83Q857.97 56.7 859.97 60.15L859.02 60.55Q857.62 57.75 855.22 56.13Q852.82 54.5 849.52 54.5Q846.32 54.5 843.72 56.6Q841.12 58.7 839.59 63.43Q838.07 68.15 838.07 76.05Q838.07 83 839.34 87.45Q840.62 91.9 842.97 94.05Q845.32 96.2 848.37 96.2Q850.82 96.2 853.42 94.78Q856.02 93.35 858.37 90.2L858.97 90.8Q855.37 95.15 851.97 96.98Q848.57 98.8 844.37 98.8Q838.97 98.8 834.79 96.2Q830.62 93.6 828.27 88.7Q825.92 83.8 825.92 77.15ZM916.46 71.95Q916.46 72.35 916.18 72.65Q915.91 72.95 915.36 72.95L884.31 72.95L884.31 72.05L903.71 72.05Q904.56 72.05 904.56 71.1Q904.56 62.2 902.18 57.95Q899.81 53.7 896.41 53.7Q893.61 53.7 891.56 55.63Q889.51 57.55 888.38 61.5Q887.26 65.45 887.26 71.55Q887.26 81.85 891.58 87Q895.91 92.15 902.86 92.15Q908.01 92.15 911.56 89.28Q915.11 86.4 915.61 81.5Q915.61 81.3 915.71 81.23Q915.81 81.15 915.81 81.15Q915.96 81.15 916.08 81.25Q916.21 81.35 916.16 81.65Q915.86 86.55 913.31 90.45Q910.76 94.35 906.53 96.58Q902.31 98.8 897.01 98.8Q890.81 98.8 886.13 96.08Q881.46 93.35 878.81 88.35Q876.16 83.35 876.16 76.75Q876.16 69.6 878.86 64.25Q881.56 58.9 886.43 55.9Q891.31 52.9 897.86 52.9Q903.51 52.9 907.68 55.38Q911.86 57.85 914.16 62.18Q916.46 66.5 916.46 71.95ZM935.76 72.85Q935.76 66.25 937.68 61.83Q939.61 57.4 942.58 55.18Q945.56 52.95 948.76 52.95Q952.46 52.95 954.46 55.28Q956.46 57.6 956.46 61.85Q956.46 65.6 954.71 67.43Q952.96 69.25 950.36 69.25Q947.91 69.25 946.73 67.9Q945.56 66.55 945.41 63.85L945.36 62.25Q945.36 60.75 944.73 59.95Q944.11 59.15 942.71 59.15Q941.06 59.15 939.63 60.68Q938.21 62.2 937.28 65.33Q936.36 68.45 936.36 73.15ZM936.36 53.95L936.36 70.55L936.36 94.75Q936.36 95.3 936.68 95.75Q937.01 96.2 937.66 96.35L942.56 97.1Q942.86 97.15 942.93 97.23Q943.01 97.3 943.01 97.5Q943.01 97.6 942.88 97.7Q942.76 97.8 942.56 97.8L920.41 97.8Q920.16 97.8 920.01 97.68Q919.86 97.55 919.86 97.5Q919.86 97.3 920.03 97.2Q920.21 97.1 920.51 97.05L923.21 96.65Q923.86 96.5 924.13 96.13Q924.41 95.75 924.41 95.25L924.41 58.35Q924.41 58.05 924.28 57.85Q924.16 57.65 923.81 57.65L920.36 57.65Q920.26 57.6 920.13 57.5Q920.01 57.4 920.01 57.3Q920.01 57.15 920.11 57.03Q920.21 56.9 920.51 56.9L934.81 53.5Q935.21 53.35 935.41 53.33Q935.61 53.3 935.86 53.3Q936.16 53.3 936.26 53.5Q936.36 53.7 936.36 53.95ZM990.72 72.85Q990.72 66.25 992.64 61.83Q994.57 57.4 997.54 55.18Q1000.52 52.95 1003.72 52.95Q1007.42 52.95 1009.42 55.28Q1011.42 57.6 1011.42 61.85Q1011.42 65.6 1009.67 67.43Q1007.92 69.25 1005.32 69.25Q1002.87 69.25 1001.69 67.9Q1000.52 66.55 1000.37 63.85L1000.32 62.25Q1000.32 60.75 999.69 59.95Q999.07 59.15 997.67 59.15Q996.02 59.15 994.59 60.68Q993.17 62.2 992.24 65.33Q991.32 68.45 991.32 73.15ZM991.32 53.95L991.32 70.55L991.32 94.75Q991.32 95.3 991.64 95.75Q991.97 96.2 992.62 96.35L997.52 97.1Q997.82 97.15 997.89 97.23Q997.97 97.3 997.97 97.5Q997.97 97.6 997.84 97.7Q997.72 97.8 997.52 97.8L975.37 97.8Q975.12 97.8 974.97 97.68Q974.82 97.55 974.82 97.5Q974.82 97.3 974.99 97.2Q975.17 97.1 975.47 97.05L978.17 96.65Q978.82 96.5 979.09 96.13Q979.37 95.75 979.37 95.25L979.37 58.35Q979.37 58.05 979.24 57.85Q979.12 57.65 978.77 57.65L975.32 57.65Q975.22 57.6 975.09 57.5Q974.97 57.4 974.97 57.3Q974.97 57.15 975.07 57.03Q975.17 56.9 975.47 56.9L989.77 53.5Q990.17 53.35 990.37 53.33Q990.57 53.3 990.82 53.3Q991.12 53.3 991.22 53.5Q991.32 53.7 991.32 53.95ZM1030.37 53.6L1030.37 95.05Q1030.37 95.7 1030.67 96.1Q1030.97 96.5 1031.62 96.65L1034.32 97.1Q1034.67 97.1 1034.77 97.23Q1034.87 97.35 1034.87 97.5Q1034.87 97.6 1034.75 97.7Q1034.62 97.8 1034.42 97.8L1014.32 97.8Q1014.17 97.8 1014.05 97.7Q1013.92 97.6 1013.92 97.5Q1013.92 97.35 1014.02 97.28Q1014.12 97.2 1014.37 97.15L1017.27 96.65Q1017.92 96.45 1018.2 96.08Q1018.47 95.7 1018.47 95.05L1018.47 58.55Q1018.47 58.25 1018.32 58.08Q1018.17 57.9 1017.82 57.9L1014.52 57.9Q1014.32 57.9 1014.22 57.83Q1014.12 57.75 1014.12 57.55Q1014.12 57.35 1014.25 57.3Q1014.37 57.25 1014.52 57.2L1028.82 53.2Q1029.32 53.05 1029.5 53.03Q1029.67 53 1029.87 53Q1030.17 53 1030.27 53.18Q1030.37 53.35 1030.37 53.6ZM1024.22 46.7Q1021.07 46.7 1019.1 44.6Q1017.12 42.5 1017.12 39.5Q1017.12 36.45 1019.1 34.35Q1021.07 32.25 1024.22 32.25Q1027.37 32.25 1029.42 34.35Q1031.47 36.45 1031.47 39.5Q1031.47 42.5 1029.42 44.6Q1027.37 46.7 1024.22 46.7ZM1054.11 53.6L1054.11 95.05Q1054.11 95.7 1054.41 96.1Q1054.71 96.5 1055.36 96.65L1058.06 97.1Q1058.61 97.2 1058.61 97.45Q1058.61 97.8 1058.16 97.8L1038.06 97.8Q1037.91 97.8 1037.79 97.7Q1037.66 97.6 1037.66 97.5Q1037.66 97.35 1037.76 97.28Q1037.86 97.2 1038.11 97.15L1041.01 96.65Q1041.66 96.45 1041.94 96.08Q1042.21 95.7 1042.21 95.05L1042.21 58.55Q1042.21 58.25 1042.06 58.08Q1041.91 57.9 1041.56 57.9L1038.26 57.9Q1038.06 57.9 1037.96 57.83Q1037.86 57.75 1037.86 57.55Q1037.86 57.35 1037.99 57.3Q1038.11 57.25 1038.26 57.2L1052.56 53.2Q1053.06 53.1 1053.24 53.05Q1053.41 53 1053.61 53Q1053.86 53 1053.99 53.18Q1054.11 53.35 1054.11 53.6ZM1053.06 63.45L1052.61 62.95L1054.41 61.3Q1059.61 56.65 1063.74 54.8Q1067.86 52.95 1071.36 52.95Q1076.31 52.95 1079.46 55.98Q1082.61 59 1082.61 65.5L1082.61 94.75Q1082.61 95.55 1082.99 96.05Q1083.36 96.55 1084.16 96.7L1086.56 97.15Q1086.86 97.15 1086.96 97.25Q1087.06 97.35 1087.06 97.5Q1087.06 97.6 1086.94 97.7Q1086.81 97.8 1086.61 97.8L1066.41 97.8Q1065.96 97.8 1065.96 97.45Q1065.96 97.2 1066.51 97.1L1069.31 96.65Q1070.11 96.45 1070.41 95.98Q1070.71 95.5 1070.71 94.75L1070.71 66.65Q1070.71 62.25 1068.74 60.23Q1066.76 58.2 1063.41 58.2Q1061.31 58.2 1059.16 59.08Q1057.01 59.95 1054.86 61.9ZM1118.83 95.9Q1113.13 94.5 1110.31 93.48Q1107.48 92.45 1106.53 91.58Q1105.58 90.7 1105.58 89.55Q1105.58 88.4 1106.38 87.58Q1107.18 86.75 1108.28 86.4L1108.28 86Q1103.83 86.75 1101.18 87.98Q1098.53 89.2 1097.38 90.93Q1096.23 92.65 1096.23 94.85Q1096.23 97.3 1097.73 98.93Q1099.23 100.55 1102.78 101.83Q1106.33 103.1 1112.53 104.5Q1117.88 105.7 1120.81 106.93Q1123.73 108.15 1124.86 109.73Q1125.98 111.3 1125.98 113.3Q1125.98 115.95 1124.56 117.78Q1123.13 119.6 1120.28 120.5Q1117.43 121.4 1113.18 121.4Q1105.18 121.4 1101.21 117.78Q1097.23 114.15 1097.23 108.2Q1097.23 105.8 1099.01 104.05Q1100.78 102.3 1104.23 101.6L1104.18 101.1Q1095.98 102.15 1092.51 104.73Q1089.03 107.3 1089.03 111.45Q1089.03 114.6 1091.46 117.08Q1093.88 119.55 1099.11 120.98Q1104.33 122.4 1112.68 122.4Q1123.58 122.4 1129.53 118.4Q1135.48 114.4 1135.48 108.1Q1135.48 104.85 1134.06 102.58Q1132.63 100.3 1129.01 98.7Q1125.38 97.1 1118.83 95.9ZM1119.48 55.45L1120.28 55.35Q1121.23 53.35 1122.36 52.18Q1123.48 51 1124.93 51Q1126.03 51 1126.88 51.88Q1127.73 52.75 1128.56 53.93Q1129.38 55.1 1130.41 55.98Q1131.43 56.85 1132.93 56.85Q1135.13 56.85 1136.33 55.53Q1137.53 54.2 1137.53 51.85Q1137.53 49 1135.73 47.18Q1133.93 45.35 1130.63 45.35Q1126.93 45.35 1124.38 47.9Q1121.83 50.45 1119.88 54.55ZM1132.23 69.55Q1132.23 65.05 1129.83 61.28Q1127.43 57.5 1122.93 55.18Q1118.43 52.85 1112.28 52.85Q1105.68 52.85 1100.91 55.2Q1096.13 57.55 1093.56 61.58Q1090.98 65.6 1090.98 70.6Q1090.98 75.05 1093.56 78.78Q1096.13 82.5 1100.81 84.7Q1105.48 86.9 1111.78 86.9Q1117.58 86.9 1122.21 84.63Q1126.83 82.35 1129.53 78.43Q1132.23 74.5 1132.23 69.55ZM1109.68 53.95Q1113.63 53.75 1116.48 58.1Q1119.33 62.45 1120.03 70.1Q1120.63 77.2 1118.68 81.38Q1116.73 85.55 1113.23 85.7Q1110.68 85.85 1108.48 83.88Q1106.28 81.9 1104.83 78.25Q1103.38 74.6 1102.93 69.6Q1102.48 64.95 1103.26 61.45Q1104.03 57.95 1105.71 56Q1107.38 54.05 1109.68 53.95ZM1146.96 98.7Q1145.01 98.7 1143.39 97.68Q1141.76 96.65 1140.84 94.93Q1139.91 93.2 1139.91 91.2Q1139.91 89.2 1140.84 87.5Q1141.76 85.8 1143.39 84.8Q1145.01 83.8 1146.96 83.8Q1149.01 83.8 1150.64 84.8Q1152.26 85.8 1153.21 87.5Q1154.16 89.2 1154.16 91.15Q1154.16 93.2 1153.21 94.93Q1152.26 96.65 1150.66 97.68Q1149.06 98.7 1146.96 98.7Z" fill="#faf5ea"/></g>
  <g transform="translate(96 504) scale(0.28)"><path d="M11.4 97L11.4 40.1Q11.4 32.3 15.8 28.15Q20.2 24 29 24Q31 24 32.3 24.2Q33.6 24.4 34.6 24.8L34.6 32.8Q33.9 32.6 32.75 32.4Q31.6 32.2 30.2 32.2Q25.8 32.2 23.8 34.35Q21.8 36.5 21.8 40.4L21.8 97ZM1.6 54.3L1.6 46L33.5 46L33.5 54.3ZM73.03 97Q72.53 95.1 72.38 92.8Q72.23 90.5 72.23 87.2L71.73 87.2L71.73 62.9Q71.73 58 69.28 55.55Q66.83 53.1 61.53 53.1Q56.43 53.1 53.38 55.1Q50.33 57.1 49.83 60.8L39.93 60.8Q40.63 53.6 46.43 49.3Q52.23 45 61.93 45Q71.93 45 76.93 49.65Q81.93 54.3 81.93 63.3L81.93 87.2Q81.93 89.5 82.23 91.9Q82.53 94.3 83.13 97ZM55.43 98Q47.63 98 43.03 94.15Q38.43 90.3 38.43 83.7Q38.43 76.9 43.28 72.95Q48.13 69 57.23 67.6L74.03 64.9L74.03 72.2L58.83 74.6Q53.73 75.4 51.18 77.3Q48.63 79.2 48.63 82.8Q48.63 86.3 50.98 88.05Q53.33 89.8 57.83 89.8Q63.83 89.8 67.78 86.9Q71.73 84 71.73 79.6L73.03 87Q71.23 92.3 66.63 95.15Q62.03 98 55.43 98ZM90.07 118.5Q88.27 118.5 86.97 118.3Q85.67 118.1 84.67 117.7L84.67 109.7Q85.37 109.9 86.52 110.1Q87.67 110.3 88.87 110.3Q92.37 110.3 93.82 108.75Q95.27 107.2 95.27 104.1L95.27 46L105.67 46L105.67 104.4Q105.67 111.1 101.92 114.8Q98.17 118.5 90.07 118.5ZM94.77 36L94.77 24.3L106.27 24.3L106.27 36ZM119.73 97L119.73 46L130.13 46L130.13 97ZM119.23 36L119.23 24.3L130.73 24.3L130.73 36ZM166.03 98Q157.13 98 152.98 93.85Q148.83 89.7 148.83 81.6L148.83 34.3L159.13 30.4L159.13 81.7Q159.13 85.7 161.23 87.6Q163.33 89.5 168.03 89.5Q169.83 89.5 171.23 89.2Q172.63 88.9 173.63 88.5L173.63 96.9Q172.53 97.4 170.53 97.7Q168.53 98 166.03 98ZM138.63 54.3L138.63 46L173.63 46L173.63 54.3ZM214.77 97Q214.27 95.1 214.12 92.8Q213.97 90.5 213.97 87.2L213.47 87.2L213.47 62.9Q213.47 58 211.02 55.55Q208.57 53.1 203.27 53.1Q198.17 53.1 195.12 55.1Q192.07 57.1 191.57 60.8L181.67 60.8Q182.37 53.6 188.17 49.3Q193.97 45 203.67 45Q213.67 45 218.67 49.65Q223.67 54.3 223.67 63.3L223.67 87.2Q223.67 89.5 223.97 91.9Q224.27 94.3 224.87 97ZM197.17 98Q189.37 98 184.77 94.15Q180.17 90.3 180.17 83.7Q180.17 76.9 185.02 72.95Q189.87 69 198.97 67.6L215.77 64.9L215.77 72.2L200.57 74.6Q195.47 75.4 192.92 77.3Q190.37 79.2 190.37 82.8Q190.37 86.3 192.72 88.05Q195.07 89.8 199.57 89.8Q205.57 89.8 209.52 86.9Q213.47 84 213.47 79.6L214.77 87Q212.97 92.3 208.37 95.15Q203.77 98 197.17 98ZM233.87 97L233.87 84.6L246.17 84.6L246.17 97ZM260.57 97L260.57 46L270.97 46L270.97 97ZM260.07 36L260.07 24.3L271.57 24.3L271.57 36ZM307.57 98Q299.77 98 293.87 94.55Q287.97 91.1 284.67 85.05Q281.37 79 281.37 71.3Q281.37 63.5 284.72 57.6Q288.07 51.7 293.92 48.35Q299.77 45 307.57 45Q315.47 45 321.37 48.35Q327.27 51.7 330.52 57.6Q333.77 63.5 333.77 71.3Q333.77 79 330.52 85.05Q327.27 91.1 321.37 94.55Q315.47 98 307.57 98ZM307.57 89.5Q312.27 89.5 315.72 87.2Q319.17 84.9 321.17 80.8Q323.17 76.7 323.17 71.2Q323.17 63 318.82 58.25Q314.47 53.5 307.57 53.5Q300.77 53.5 296.42 58.3Q292.07 63.1 292.07 71.2Q292.07 76.7 294.02 80.8Q295.97 84.9 299.52 87.2Q303.07 89.5 307.57 89.5Z" fill="#faf5ea" opacity="0.75"/></g>
</svg>
